<svg xmlns="http://www.w3.org/2000/svg" xml:space="preserve" id="Layer_1" x="0" y="0" style="enable-background:new 0 0 200 200" version="1.1" viewBox="0 0 200 200"><style>.st0{fill:#fff}</style><path d="M137.5 113.3s-21.8-.3-32.7-21.9C89.8 61.5 121 45.5 121 45.5l27.7 4.9-11.2 62.9M69.3 120.6l4.7.8-1.6-4.1zM107.2 122.8c-1.5-.3-2.8-.2-3.8.2s-1.6 1.1-1.8 2.2c-.2 1 .1 1.9.9 2.7.8.7 2 1.2 3.5 1.5s2.8.2 3.8-.2 1.6-1.1 1.8-2.2c.2-1-.1-1.9-.9-2.7-.8-.8-1.9-1.3-3.5-1.5z" class="st0"/><path d="M93.5 101.9c-18.2-19-18.4-41.7-6.9-62.4l-15.2-2.7L54.5 133l77.1 13.6 5.1-28.7s-24.9 3-43.2-16zm-17.9 23.4-.8-2.1L68 122l-1.6 1.7-4-.7 8.2-8.1 4.3.8 4.9 10.4-4.2-.8zm21.2-4.1-5.5-1-1.4 7.6-3.9-.7 1.4-7.6-5.5-1 .3-1.6 14.9 2.6-.3 1.7zm18.7 6.4c-.3 1.7-1.4 2.8-3.5 3.3-1.5.5-3.6.5-6.2 0s-4.6-1.2-5.8-2.2c-1.7-1.2-2.4-2.7-2.1-4.3.3-1.7 1.5-2.8 3.5-3.3 1.5-.5 3.6-.5 6.2 0s4.6 1.2 5.8 2.2c1.7 1.1 2.4 2.6 2.1 4.3zm15 7.5-12.9-2.3 1.6-9.3 3.8.7-1.4 7.6 9.1 1.6-.2 1.7z" class="st0"/><path d="M85 187.8c-48.3-8.5-80.6-54.7-72.1-103S67.6 4.1 115.8 12.7c48.3 8.5 80.6 54.7 72.1 103-8.4 48.2-54.6 80.6-102.9 72.1zM6.9 83.7c-9.1 51.6 25.5 101 77.1 110.1 51.6 9.1 100.9-25.5 110-77.1 1-5.6 1.5-11.1 1.5-16.6 0-45.2-32.5-85.5-78.5-93.6C65.4-2.5 16 32.1 6.9 83.7z" class="st0"/><path d="M29 118c.2.6.4 1.3.7 1.8 1 1.7 2.8 1.9 4.5 1.5 2.3-.6 3.4-2.2 3-3.6l-.5-1.7-7.7 2m-10 2.7c-.1-.7-.2-1.4-.4-2.2-.2-.7-.5-1.4-.7-2.1l19.3-5.3 1.9 6.9c1.1 3.9.1 6.5-3.1 7.3-5 1.4-7.1-2-8.5-7.1l-8.5 2.5zM36 135.3c1.3 2.8 3.3 3.4 5.9 1.8.4-.2.7-.5 1.2-.9 1.9-1.6.5-3.4-.4-4.9l-6.7 4m5.9-8.5 3.1 5.4c.7 1.2 1.8 3 1.9 4.4.1 1.9-.6 3.3-2.3 4.3-2.5 1.4-5 .8-6.8-1.3-1.6 2.8-3 5.7-4.5 8.6l-1 1.9-1.2-2.4c-.4-.8-1-1.5-1.5-2.2l3.5-6.1c.5-.8 1.2-2.2 1.8-3.3l-.1-.2-8.1 4.7c-.3-.7-.6-1.3-1-2l-1.2-1.8 17.4-10zM46.5 152.4c-2.5 2.9-3.9 7-.6 9.9 3.4 3 7.8.9 11-2.7 2.5-2.8 4-7.2.7-10.1-2.9-2.7-6.8-2-11.1 2.9m-1.8 11.2c-4.8-4.2-5.6-10-1.3-15 3.8-4.4 10.1-5.1 15.6-.3 6.3 5.5 4.2 11.5 1.3 14.9-3.7 4.3-10.2 5.1-15.6.4zM69.2 178.2c-.6-.3-1.3-.7-1.9-1-.7-.3-1.4-.5-2.1-.7l7.1-16.5c-1.9-.8-3.7-1.4-5.1-1.8.2-.4.5-.7.6-1.1.2-.4.2-.8.4-1.2l13.8 6c-.2.4-.5.7-.6 1.1-.2.4-.3.8-.4 1.2-1.5-.9-3-1.7-4.6-2.4l-7.2 16.4M95.8 164.4c-.1.4-.3.8-.3 1.2-.1.4-.1.9-.1 1.3-1.7-.5-3.6-1.1-6.6-1.5l-1 6.2 3 .5c1.3.2 2.5.3 3.6.3-.1.4-.3.8-.4 1.2s-.1.8-.1 1.3c-1-.3-2.2-.6-3.5-.9l-3-.5-1.2 7.3c2.9.5 4.9.7 6.7.7-.1.4-.3.8-.4 1.2s-.1.8-.1 1.3l-11-1.9 3.3-19.6 11.1 1.9M116.7 179.7l-.4 2.6c-1.7 1.1-3.7 1.6-5.6 1.8-6.2.6-11.3-2.8-11.9-8.7-.7-7.6 4.2-11.5 10.5-12.2 1.9-.2 4.3.1 6.1.9-.2 1-.2 2-.4 3.1h-.4c-1.2-1.5-3.2-2.4-5.1-2.2-4.8.5-6.3 5.3-5.9 9.5.5 5 3.3 8.2 7.7 7.8 1.8-.2 3.8-1.3 5-2.7l.4.1M133.2 177.7c-.7.2-1.4.4-2.1.7-.7.3-1.3.6-2 .9l-6.5-16.7c-1.9.8-3.6 1.6-4.9 2.4l-.3-1.2c-.1-.4-.4-.7-.6-1.1l14-5.5.3 1.2c.2.4.4.8.6 1.1-1.7.4-3.4.9-5 1.5l6.5 16.7M142.3 149c.2.4.4.8.6 1.1.2.3.6.6.8.9-1.6.8-3.3 1.8-5.7 3.6l3.6 5.1 2.5-1.8c1.1-.8 2-1.5 2.8-2.3.2.4.4.8.6 1.1.2.3.6.6.8.9-1 .5-2 1.1-3.1 1.9l-2.5 1.8 4.3 6.1c2.4-1.7 3.9-3 5.3-4.2.2.4.4.8.6 1.1.2.3.6.6.8.9l-9.1 6.4-11.4-16.2 9.1-6.4M162.2 154.7l1.5-1.9c2.5-3.2 2.8-6.8-2.5-11-4.3-3.4-7.6-2.7-10.2.5l-1.8 2.2 13 10.2M151.4 139c4.1-4.8 9.1-4.1 12.8-1.1 5.2 4.1 5.4 10.2 1.7 14.8l-5.1 6.4-15.6-12.3 6.2-7.8z" class="st0"/><text class="st0" style="font-size:23px;font-family:&quot;OpenSans-Bold&quot;" transform="rotate(9.97 -144.877 462.358)">11257</text></svg>