<svg xmlns="http://www.w3.org/2000/svg" width="500" height="176" fill="none"><path fill="#fff" d="M228.56 0h-83.74v12.555h83.74V0ZM161.516 110.038h3.354v18.953h-3.354v-18.953ZM161.516 159.482v-22.256h3.354v22.256h-3.354ZM208.388 121.562v37.92h3.354v-37.92h-3.354Z"/><path fill="#fff" fill-rule="evenodd" d="M144.774 93.552h83.71v82.431h-83.71V93.552Zm43.532 8.235h8.364v65.946h-8.364v-65.946ZM169.88 132.01c1.897 0 3.354-2.197 3.354-3.841v-23.078c0-1.644-1.67-3.304-3.354-3.304h-16.743v65.946h16.743c1.669 0 3.354-1.645 3.354-3.303v-29.67c0-1.644-1.26-2.75-3.354-2.75Zm41.862-18.683v-11.54h8.379v65.946h-16.742c-1.685 0-3.355-1.659-3.355-3.303v-47.8c0-1.659 1.685-3.303 3.355-3.303h8.363Zm-26.79-11.54h-8.364v8.236h8.364v-8.236Zm-8.364 11.54h8.364v54.406h-8.364v-54.406Z" clip-rule="evenodd"/><path fill="#fff" d="M0 44.556C0 21.3 17.85 5.426 40.891 5.426c16.94 0 26.73 9.072 32.134 18.489l-14.056 6.8c-3.233-6.128-10.14-11-18.093-11-13.934 0-24.073 10.552-24.073 24.841 0 14.29 10.139 24.842 24.073 24.842 7.954 0 14.86-4.768 18.093-11l14.056 6.695c-5.525 9.417-15.21 18.61-32.134 18.61C17.851 83.702 0 67.812 0 44.555ZM78.155 54.885c0-15.545 11.065-28.698 29.371-28.698 18.427 0 29.492 13.153 29.492 28.698 0 15.649-11.065 28.817-29.492 28.817-18.32 0-29.371-13.168-29.371-28.817Zm43.654 0c0-8.505-5.191-15.874-14.283-15.874-9.108 0-14.162 7.369-14.162 15.874 0 8.624 5.07 15.993 14.162 15.993s14.283-7.37 14.283-15.993ZM213.807 82.342V47.74c0-5.112-2.308-8.729-8.288-8.729-5.191 0-9.441 3.408-11.521 6.353v36.978H179.26V47.74c0-5.112-2.307-8.729-8.288-8.729-5.069 0-9.334 3.408-11.52 6.472v36.874h-14.648V27.562h14.633v7.144c2.307-3.288 9.684-8.504 18.199-8.504 8.181 0 13.357 3.736 15.437 9.984 3.217-4.992 10.594-9.984 19.125-9.984 10.245 0 16.362 5.336 16.362 16.56v39.595l-14.753-.015ZM252.117 75.302v27.906h-14.632V27.547h14.632v6.92c4.266-5.336 10.367-8.28 17.167-8.28 14.284 0 24.651 10.433 24.651 28.698s-10.367 28.817-24.651 28.817c-6.558 0-12.674-2.72-17.167-8.4Zm26.609-20.417c0-9.417-5.648-15.874-14.057-15.874-4.719 0-10.138 2.72-12.552 6.233v19.4c2.414 3.409 7.833 6.234 12.552 6.234 8.425 0 14.057-6.472 14.057-15.993ZM339.167 82.342v-6.92c-3.795 4.2-10.487 8.28-19.581 8.28-12.203 0-17.971-6.577-17.971-17.249V27.547h14.632v33.242c0 7.593 4.037 10.089 10.245 10.089 5.649 0 10.141-3.064 12.675-6.233V27.547h14.632v54.795h-14.632ZM371.042 68.725V40.147h-9.214V27.562h9.214V12.57h14.739v14.977h11.292v12.585h-11.292v24.722c0 3.408 1.836 6.009 5.071 6.009 2.184 0 4.263-.792 5.067-1.585l3.112 10.896c-2.185 1.929-6.101 3.513-12.203 3.513-10.245.015-15.786-5.202-15.786-14.962ZM403.083 54.885c0-15.874 11.87-28.698 28.795-28.698 16.591 0 27.882 12.256 27.882 30.177v3.17h-41.362c.927 6.92 6.573 12.704 16.016 12.704 4.719 0 11.292-2.048 14.859-5.44l6.451 9.296c-5.526 4.992-14.284 7.593-22.919 7.593-16.94.015-29.722-11.225-29.722-28.802Zm28.795-17.249c-9.107 0-13.024 6.696-13.706 12.137h27.414c-.336-5.217-4.024-12.137-13.708-12.137ZM467.625 82.342V27.547h14.63v7.488c3.917-4.872 10.823-8.848 17.745-8.848v14.065c-1.031-.225-2.414-.344-4.036-.344-4.844 0-11.295 2.72-13.709 6.233v36.186h-14.63v.015Z"/></svg>