<svg width="564" height="200" viewBox="0 0 564 200" xmlns="http://www.w3.org/2000/svg" fill-rule="evenodd" clip-rule="evenodd" stroke-linejoin="round" stroke-miterlimit="2"><path d="M0 2.3h.8v-.8l-.8.8z" fill="#181818"/><path d="M.805 2.3v18.4h30.1v176.7h28.5V20.7h29.3V2.3H.805z" fill="#fff"/><path d="M70.805 51.7h25.6v8.4s14.4-11.7 28.8-9.6v25.9h-8.9s-19.1.8-18.7 13.4c.3 10.5 0 107.2 0 107.2h-26.8V51.7zM199.405 51.3h27.9l16.5 93.4 15.2-93h17.7l-27 145.7h-21.6l-28.7-146.1zM325.405 137.4v32.3s-.4 17.6-11.8 17.2c-11.4-.4-12.6-17.2-12.6-17.2v-44h53.1c4.2-79.1-40.9-76.2-40.9-76.2-43.8 5.4-40.9 62.4-40.9 62.4s-5.5 88.3 41.7 86.6c47.2-1.7 39.6-61.1 39.6-61.1h-28.2zm-12.6-76.9s11.4.4 11.8 21.3c.4 20.9 0 32.2 0 32.2h-23.6V81.5s-.4-21 11.8-21zM476.405 137.4v32.3s-.4 17.6-11.8 17.2c-11.4-.4-12.6-17.2-12.6-17.2v-44h53.1c4.2-79.1-40.9-76.2-40.9-76.2-43.8 5.4-40.9 62.4-40.9 62.4s-5.5 88.3 41.7 86.6c47.2-1.7 39.6-61.1 39.6-61.1h-28.2zm-12.6-76.9s11.4.4 11.8 21.3c.4 20.9 0 32.2 0 32.2h-23.6V81.5s-.4-21 11.8-21zM358.405 197.4h26.4V.2h-26.4v197.2zM392.505 197.4h26.4V.2h-26.4v197.2zM509.505 50.1h25.7v8.4s14.4-11.7 28.8-9.6v26h-8.9s-18.5.8-18.7 13.4c-.1 10.5 0 109.2 0 109.2h-26.9V50.1z" fill="#fff"/><path d="M165.105 50.1c-43.8.8-37.9 45.1-37.9 45.1h26.4V76s1.8-14.2 11.1-14.2c9.3 0 10.4 13.5 10.4 13.5v19.5c-1.3 2.2-10 8.5-10 8.5-3.4 2.2-7.3 5.2-17.7 12.1-12.8 8.5-18.4 17.6-18.4 17.6-8.1 12.8-5.8 43.3-1.4 51.8 1.8 3.4 8.4 14.2 24 14.2s25.3-10 25.3-10v8.4h24.9V95.3c-.1-47.8-36.7-45.2-36.7-45.2zm10.4 117s-1.1 12.4-11 12.6c-10.5.1-13.1-11.2-13.1-11.2v-35.3s.3-4.6 2.9-7.5c2.7-2.9 17.3-10.7 21.1-14.1v55.5h.1zM119.205 14.7c-1.3-6-5-7-7.3-7-7.5 0-8.6 10.9-8.6 15.6 0 7.2 2.4 14.1 7.9 14.1.8 0 6.1 0 8.5-7.6l7.1 2.2c-.5 2.2-1 4.3-2.8 6.9-2.2 3.1-5.9 6.1-11.7 6.1-7.3 0-16.8-4.9-16.8-21.3 0-15.1 7.7-22.8 17-22.8 10.5-.1 13.6 9.7 14.1 11.7l-7.4 2.1z" fill="#fff"/><path d="M119.205 14.7c-1.3-6-5-7-7.3-7-7.5 0-8.6 10.9-8.6 15.6 0 7.2 2.4 14.1 7.9 14.1.8 0 6.1 0 8.5-7.6l7.1 2.2c-.5 2.2-1 4.3-2.8 6.9-2.2 3.1-5.9 6.1-11.7 6.1-7.3 0-16.8-4.9-16.8-21.3 0-15.1 7.7-22.8 17-22.8 10.5-.1 13.6 9.7 14.1 11.7l-7.4 2.1z" fill="#fff" fill-rule="nonzero"/><path d="M153.305 28.2c0 11.3-6.4 16-12.5 16-5.6 0-12.7-4.1-12.7-15.9 0-10.3 5.3-15.7 11.9-15.7 10.6-.1 13.3 8.5 13.3 15.6m-18.1.2c0 1.9.2 10.2 5.5 10.2 5.4 0 5.6-8.4 5.6-11 0-2.8-.6-9.9-5.5-9.9-4.6-.1-5.6 5.7-5.6 10.7" fill="#fff"/><path d="M153.305 28.2c0 11.3-6.4 16-12.5 16-5.6 0-12.7-4.1-12.7-15.9 0-10.3 5.3-15.7 11.9-15.7 10.6-.1 13.3 8.5 13.3 15.6m-18.1.2c0 1.9.2 10.2 5.5 10.2 5.4 0 5.6-8.4 5.6-11 0-2.8-.6-9.9-5.5-9.9-4.6-.1-5.6 5.7-5.6 10.7" fill="#fff" fill-rule="nonzero"/><path d="M178.905 43.7h-7.1V22.3c0-1.7-.4-3.5-2.6-3.5-2.1 0-4 1.4-6.5 3.9v21h-7.1V13.1h7.1v4.2c1.4-1.4 4.5-4.7 9.7-4.7 4.3 0 6.4 7.8 6.4 7.8v23.3h.1z" fill="#fff"/><path d="M178.905 43.7h-7.1V22.3c0-1.7-.4-3.5-2.6-3.5-2.1 0-4 1.4-6.5 3.9v21h-7.1V13.1h7.1v4.2c1.4-1.4 4.5-4.7 9.7-4.7 4.3 0 6.4 7.8 6.4 7.8v23.3h.1z" fill="#fff" fill-rule="nonzero"/><path d="M205.805.5v43.1h-7v-3.5c-.9 1-3.4 4-7.6 4-6.3 0-10.4-6.9-10.4-15.6 0-8.8 4.2-15.7 10.4-15.7 1.3 0 4.5.2 7.6 4V.5h7zm-7 21.7c-.9-1.1-2.6-3-4.9-3-5.2 0-5.5 7.2-5.5 9.4 0 2.5.7 9.1 5.5 9.1 2.5 0 4.1-1.9 4.9-2.9V22.2z" fill="#fff"/><path d="M205.805.5v43.1h-7v-3.5c-.9 1-3.4 4-7.6 4-6.3 0-10.4-6.9-10.4-15.6 0-8.8 4.2-15.7 10.4-15.7 1.3 0 4.5.2 7.6 4V.5h7zm-7 21.7c-.9-1.1-2.6-3-4.9-3-5.2 0-5.5 7.2-5.5 9.4 0 2.5.7 9.1 5.5 9.1 2.5 0 4.1-1.9 4.9-2.9V22.2z" fill="#fff" fill-rule="nonzero"/><path d="M215.905 29.9c.3 6.9 3.8 8.1 5.8 8.1 3.5 0 4.9-3 5.5-4.2l5.7 2.6c-.9 1.9-3.9 7.7-11.3 7.7-7 0-13.2-5.8-13.2-16 0-9.2 5.3-15.3 12.9-15.3 6 0 10 3.7 11.4 8.4 1 3.4.9 6 .7 8.7h-17.5zm11.4-4.6c-.3-6-3.8-7.2-5.8-7.2-2.3 0-5.3 1.7-5.6 7.2h11.4zm3.6-24.5l-10 8.8h-5.3l6.9-8.8h8.4z" fill="#fff"/><path d="M215.905 29.9c.3 6.9 3.8 8.1 5.8 8.1 3.5 0 4.9-3 5.5-4.2l5.7 2.6c-.9 1.9-3.9 7.7-11.3 7.7-7 0-13.2-5.8-13.2-16 0-9.2 5.3-15.3 12.9-15.3 6 0 10 3.7 11.4 8.4 1 3.4.9 6 .7 8.7h-17.5zm11.4-4.6c-.3-6-3.8-7.2-5.8-7.2-2.3 0-5.3 1.7-5.6 7.2h11.4zm3.6-24.5l-10 8.8h-5.3l6.9-8.8h8.4z" fill="#fff" fill-rule="nonzero"/><path d="M256.805 1.1l15.7 28.5h.1V1.1h7.6v42.6h-7.5l-16.3-29.7h-.1v29.7h-7.5V1.1h8z" fill="#fff"/><path d="M256.805 1.1l15.7 28.5h.1V1.1h7.6v42.6h-7.5l-16.3-29.7h-.1v29.7h-7.5V1.1h8z" fill="#fff" fill-rule="nonzero"/><path d="M305.705 36.9c0 1.7.5 4.6 1 5.9h-6.5c-.3-1.4-.5-2.3-.6-3-1.3 1.2-3.6 3.5-7.8 3.5-4.4 0-8.5-2.9-8.5-8 0-7.6 7.6-10.8 16-11.5v-.9c0-2.8-1.8-4.6-4.5-4.6-2.9 0-5.1 1.6-6.8 4l-4-3.6c2.8-3.7 6.7-5.3 10.9-5.3 4.6 0 10.8 1.6 10.8 10v13.5zm-6.4-9c-2.6.5-9.6 2-9.6 6.8 0 2.5 1.7 3.7 3.4 3.7 2.5 0 5.2-2.3 6.2-3.2v-7.3z" fill="#fff"/><path d="M305.705 36.9c0 1.7.5 4.6 1 5.9h-6.5c-.3-1.4-.5-2.3-.6-3-1.3 1.2-3.6 3.5-7.8 3.5-4.4 0-8.5-2.9-8.5-8 0-7.6 7.6-10.8 16-11.5v-.9c0-2.8-1.8-4.6-4.5-4.6-2.9 0-5.1 1.6-6.8 4l-4-3.6c2.8-3.7 6.7-5.3 10.9-5.3 4.6 0 10.8 1.6 10.8 10v13.5zm-6.4-9c-2.6.5-9.6 2-9.6 6.8 0 2.5 1.7 3.7 3.4 3.7 2.5 0 5.2-2.3 6.2-3.2v-7.3z" fill="#fff" fill-rule="nonzero"/><path d="M325.905 20.6l-.7-.5c-2.4-1.6-3.8-2.4-5.7-2.4-2.6 0-4.2 1.8-4.2 3.6 0 2.7 2.7 3.3 5.7 4 3.8.9 10.2 2.3 10.2 9 0 4.3-3 9.8-11.7 9.8-6.6 0-9.7-3.5-11.5-5.6l4.3-3.3c1.6 1.3 3.8 3.2 7.3 3.2 2.1 0 4.4-.8 4.4-3 0-2.4-2.4-3.2-5.2-3.7-3.1-.6-10.1-2.2-10.1-9.7 0-5.2 4.5-9.5 10.8-9.5 5.1 0 8.5 2.6 10.5 4.3l-4.1 3.8z" fill="#fff"/><path d="M325.905 20.6l-.7-.5c-2.4-1.6-3.8-2.4-5.7-2.4-2.6 0-4.2 1.8-4.2 3.6 0 2.7 2.7 3.3 5.7 4 3.8.9 10.2 2.3 10.2 9 0 4.3-3 9.8-11.7 9.8-6.6 0-9.7-3.5-11.5-5.6l4.3-3.3c1.6 1.3 3.8 3.2 7.3 3.2 2.1 0 4.4-.8 4.4-3 0-2.4-2.4-3.2-5.2-3.7-3.1-.6-10.1-2.2-10.1-9.7 0-5.2 4.5-9.5 10.8-9.5 5.1 0 8.5 2.6 10.5 4.3l-4.1 3.8z" fill="#fff" fill-rule="nonzero"/><path d="M343.105 3.5v9.8h5v5.5h-5V35c0 2.6 2.3 2.8 5 2.9v6.3c-4.1.2-6.6.1-8.6-1.4-2.5-1.8-3.6-4.7-3.6-7.8V18.8h-4.3v-5.5h4.3V3.5h7.2z" fill="#fff"/><path d="M343.105 3.5v9.8h5v5.5h-5V35c0 2.6 2.3 2.8 5 2.9v6.3c-4.1.2-6.6.1-8.6-1.4-2.5-1.8-3.6-4.7-3.6-7.8V18.8h-4.3v-5.5h4.3V3.5h7.2z" fill="#fff" fill-rule="nonzero"/></svg>