<svg width="1293" height="529" viewBox="0 0 1293 529" xmlns="http://www.w3.org/2000/svg" fill-rule="evenodd" clip-rule="evenodd" stroke-linejoin="round" stroke-miterlimit="2"><path d="M1215.77 365.89c0-13.49.08-26.13 0-38.76 0-4.31-2.29-7.58-6.06-9.7-4.35-2.46-8.81-4.73-13-7.39-1.12-.71-1.55-2.53-2.29-3.85 1.19-.64 2.35-1.74 3.59-1.85 23.88-2.127 47.77-4.17 71.66-6.13 6.91-.57 7.1 0 6.79 6.68-.45 9.81-.82 19.64-.84 29.46-.08 52.467-.08 104.94 0 157.42v1.5c.07 13.48.45 14 13.08 18.81 2.49.94 5.43 1.51 3.48 5.54-23.11 3.39-46.29 6.86-69.51 10.1-3.53.49-6-1.31-5.83-5.49.14-5 0-9.91 0-16.16-2.16 1.75-3.5 2.77-4.76 3.89-15.08 13.32-32.19 20.34-52.67 17.42-22.64-3.23-38-15.82-45.36-37.09-9.58-27.83-8.58-55.9 3.45-82.79 12.03-26.89 34.64-39.39 62.77-43.31 11.73-1.64 23.49-2.08 35.5 1.7zm.26 74.68c0-17.32.08-34.65-.09-52 .01-2.617-.68-5.19-2-7.45-7.51-11.71-24.1-13.06-32.79-2.19a50.584 50.584 0 00-8.3 16.79c-4.59 15.31-5.11 31.24-4.35 47 .59 12.23 1.53 24.69 4.49 36.5 4.78 19 19.94 26.15 38.73 20.16 3.22-1 4.44-2.41 4.41-5.9-.2-17.59-.13-35.25-.13-52.91h.03zM733.7 506c-3.58 3-6.2 5.19-8.87 7.34-13.83 11.17-29.59 16.66-47.41 14.18-26.14-3.62-42.76-18.95-49.28-45.6a116.399 116.399 0 012.23-64.58c10.55-32.39 34.3-48.66 67.1-53.19 11.62-1.61 23.24-1.91 35.47 1.77v-15.64c0-7-.09-14-.1-21 0-5.66-2.27-9.9-7.42-12.57-4-2.07-8-4.21-11.75-6.61-1.16-.74-1.7-2.45-2.52-3.72 1.14-.7 2.25-1.91 3.45-2a9963.267 9963.267 0 0172.18-6.18c6.57-.53 6.75 0 6.47 6.5-.46 10.49-.81 21-.82 31.48-.08 51.5-.08 103 0 154.5v4c.25 11.89.91 12.83 12.06 17.05.97.22 1.899.595 2.75 1.11.912.954 1.723 2 2.42 3.12-.95.68-1.82 1.81-2.85 2-16.12 2.44-32.27 4.74-48.41 7.09-5.927.86-11.853 1.73-17.78 2.61-4.81.7-6.84-1-6.89-5.8-.05-4.8-.03-9.69-.03-15.86zm-.76-65.16c0-17.49.07-35-.09-52.48a13.868 13.868 0 00-1.9-7c-7.73-12.2-24.65-13.3-33.41-1.79a51.473 51.473 0 00-7.75 16c-4.48 14.64-5.16 29.91-4.53 45 .55 13.06 1.56 26.37 4.72 39 4.71 18.78 20 25.86 38.43 20 3.4-1.08 4.66-2.58 4.62-6.26-.2-17.52-.09-35.01-.09-52.51v.04zM1086.34 138.75l4.85 3.8c23 18.11 23.16 49.39.23 67.86-13.89 11.18-30.34 14.73-47.6 15.36-12.5.51-25-1.182-36.92-5-3.4-1.1-5.07-.34-6.06 2.71a40.832 40.832 0 00-2.05 7.65c-.49 4.2 1.49 7.16 5.7 8.1 2.59.582 5.23.887 7.88.91 21.16.08 42.33-.29 63.47.27 8.3.222 16.54 1.568 24.48 4 15.2 4.69 23.54 16.49 24.45 32.4 1.65 29.17-13.42 51.46-43 63.29-19.72 7.9-40.38 9.95-61.32 8.35-11.7-.9-23.34-3.15-34.89-5.4-4-.76-7.81-2.94-11.25-5.19-13.31-8.7-14.78-25.86-3.35-36.94 7-6.76 15.73-9.76 25-11.72 1.94-.41 3.89-.77 7.46-1.46-17.84-5-30.38-13.49-30.44-32.5-.06-17.57 10.18-29.24 24.32-38.65-2.57-1.65-4.66-3-6.72-4.33-25.37-16.71-22-53.78-1.66-70.51 15.26-12.56 33.28-16.17 52.3-16.2a88.248 88.248 0 0136.89 7.58c2.61 1.18 4.16.6 6.1-1.18 7.6-7 16-12.67 26.43-14.21a33.92 33.92 0 0111.85.23c12.33 2.66 18 15.93 11.73 27-3.26 5.78-8.65 7.29-14.9 7.16-5.75-.12-9.89-2.46-12.19-7.82-.46-1.07-.89-2.15-1.34-3.22-2.88-6.84-6.61-8.43-13.42-5.56-1.81.73-3.49 1.83-6.03 3.22zm-46.12 151.86v-.67c-9 0-18 .18-27-.09-3.47-.1-5.68 1.2-6.21 4.29-1.19 7-2.88 14.11-2.65 21.13.43 13.46 6.45 21.05 19.79 23 11 1.59 22.53 1.19 33.72.37 9.15-.66 18-3.78 24.77-10.61 7.12-7.19 8.72-16 5.88-25.42-2.44-8.12-9.2-11.4-16.88-11.83-10.43-.6-20.94-.17-31.42-.17zm-15.09-114.29c1.06 9.45 1.87 20.72 3.75 31.82 1.11 6.57 5.09 9 11.25 9.15 8.27.18 12.9-3.21 13.38-12.66.88-17.56.67-35.18.59-52.77 0-3.56-1.23-7.19-2.33-10.64-1.55-4.79-5.08-7.12-10.18-7.26-8.39-.23-12.54 2.79-13.76 11.69-1.31 9.52-1.73 19.17-2.7 30.67zM179.07 207.49c-1.39 26.56-2.76 52.76-4.14 79.2H.54c-1.08-3.17-.75-5.19 3-5.8a60.199 60.199 0 008.18-2.18c6.43-2 8.6-4.68 9.08-11.52.36-5.15.56-10.32.56-15.48.053-46 .053-91.983 0-137.95 0-4.83-.2-9.66-.56-14.48-.55-7.29-2.51-9.65-9.37-11.77a56.616 56.616 0 00-7.7-2.07C.16 84.88-.7 83.1.56 79.56c1.41-.09 2.87-.26 4.32-.26 52.307 0 104.62-.03 156.94-.09 4.24 0 5.74.93 5.84 5.44.45 18.82 1.32 37.62 2 56.43.07 1.81 0 3.63 0 5.53-3.8 1.51-5.54.26-7.27-3.29-5.94-12.26-12.14-24.42-18.69-36.37-6.27-11.46-16.12-17.45-29.4-17.18-8.08.16-16.16.45-24.45.69v84.73c8.88-.8 17.69-.93 26.17-2.68 3.21-.65 6.68-4.55 8.22-7.82 4-8.39 6.89-17.25 10.39-26.33h4.46v83.14c-3.46 1.42-5.15.59-6.31-3.24-2.46-8.09-5.38-16-8.39-24-2.23-5.85-6.87-8.87-13-9.31-7-.5-13.92-.8-21.33-1.21-.16 2-.38 3.4-.38 4.82v71c0 12.67 3 16 15.72 16.72 6.647.348 13.31.231 19.94-.35 8.3-.68 14.58-5 19.29-11.91C155.81 247.74 164 230 171.4 211.7c1.84-4.57 1.84-4.57 7.67-4.21zM556.62 149.7c9.23-5.69 17.58-11.47 26.5-16.18a66.012 66.012 0 0139.11-7.52c17.54 2 30.07 14.39 31.33 32.14.78 11 .58 22 .62 33 .09 24.33 0 48.65.1 73 .05 12 .94 12.88 12.52 16.13 3 .84 7.28.79 5.26 6.4h-91.65c-1.41-3.58-.09-5 3.45-5.9 10.8-2.86 11.19-3.36 11.22-14.75.1-29.83 0-59.65 0-89.47a49.505 49.505 0 00-.34-6c-1-8.51-5.24-13.27-13.73-13.8-7.56-.47-15.21.35-23 .61-.12 2.41-.25 3.88-.25 5.34v104.97c.25 8.92 1.32 10.28 10.13 12.72 3.1.86 6.57 1.39 4.45 6.33h-91.06c-1.08-3.33-.37-4.93 3.13-5.94 14.41-4.18 14.38-4.31 14.38-19.22 0-33.49-.13-67 .11-100.46.05-7.77-2.37-13.52-9.09-17.53a63.438 63.438 0 01-8.07-5.87c-1.06-.89-1.57-2.42-2.72-4.27 17.23-1.82 33.43-3.53 49.64-5.22 7.62-.8 15.25-1.46 22.86-2.33 3.64-.42 5.25.81 5.15 4.63-.17 6.26-.05 12.57-.05 19.19z" fill="#fff" fill-rule="nonzero"/><path d="M878.19 286.68c-1.36-3.58-.26-5.06 3.38-6 10.6-2.75 11.21-3.74 11.22-14.83v-89a43.746 43.746 0 00-1-8.9c-1.37-6.32-5.17-10.68-11.81-11.06-7.91-.45-15.86-.1-24.49-.1V264c0 1.5 0 3 .07 4.5.24 8.18 1.32 9.52 9.34 11.73 5.71 1.57 5.71 1.57 5.5 6.38h-91.26c-1.43-3.36-.38-4.94 3.2-6 13.91-4 14.15-4.41 14.15-18.95 0-32.16-.31-64.33.2-96.48.17-10.77-2.71-18.68-12.38-24-2.8-1.55-6.8-2.9-7.11-7.8 12.47-1.36 24.51-2.73 36.56-4 11.6-1.21 23.21-2.19 34.79-3.52 4.17-.47 5.87.76 5.72 5.06-.22 6.12-.06 12.27-.06 19.56 2.45-1.74 4.12-2.9 5.74-4.11 12.27-9.1 25.14-17.23 40.53-19.48a73.463 73.463 0 0122.78-.19c17.47 3 28.21 16.89 28.36 35.92.25 32.16.1 64.33.12 96.49v4c0 12.72.77 13.67 13.19 17.19 3.11.88 6.54 1.46 4.44 6.37l-91.18.01zM534.2 524c-1.17-3.58.18-5.12 3.22-5.69a49.344 49.344 0 005.31-1.38c4-1.21 6-3.91 6.09-8.11.07-7.83.18-15.66.19-23.49v-69.49c0-17.74-4.56-22.1-22.29-21.83-15 .23-15 .23-15 15v94c0 11.49.54 12.11 11.39 15.24 3.77 1.08 3.77 1.08 3.32 5.78H435.3c-1.45-3.5-.07-4.9 3.11-5.82 14.31-4.14 14.34-4.26 14.34-19.28 0-32.66-.25-65.33.15-98 .11-9.47-2.55-16.51-11-21.14a33.376 33.376 0 01-6.05-4.4c-1-.87-1.41-2.34-2.08-3.54a13.445 13.445 0 013.45-1.43c10.26-1.15 20.54-2.17 30.81-3.24 11.92-1.24 23.85-2.44 35.76-3.76 5.89-.65 6.73 0 6.75 6v18.55c2.4-1.7 4-2.76 5.47-3.88 13.64-10.16 28.07-18.78 45.42-20.38a65.984 65.984 0 0120.28 1.07c15.41 3.49 25.33 16 25.89 32.69.59 17.47.33 35 .38 52.48v50.49c0 13.06.81 14.07 13.41 17.57 3 .82 6.22 1.16 4.47 6L534.2 524zM141.07 378.9c-4.38 1.56-6.31-.08-8.11-3.69-5.54-11.15-10.69-22.65-17.56-33C105 326.55 90 319 70.71 323c-10.49 2.15-18 8.11-20.48 18.78-2.48 10.67-1.6 21.39 7.93 28.07 8.73 6.12 18.73 10.55 28.45 15.14 13 6.18 26.82 11 39.46 17.88 15.73 8.59 27.26 21.35 30.63 39.81 6 32.84-11.34 63.92-42.93 77.5-16.8 7.23-34.43 8.62-52.38 7.68-17-.88-33.79-3-50.23-7.68-3.12-.87-4.58-2-4.76-5.56-1-18.79-2.3-37.57-3.48-56.36-.06-1 0-1.94 0-2.83 4.36-1.68 6.36-.07 8.45 3.61 7.54 13.3 14.75 26.9 23.62 39.3 12.61 17.64 30.64 23.78 51.91 19.9 11.11-2 20-7.68 22.47-19.25 2.7-12.47 1.21-24.84-9.84-33-6.83-5-15-8.42-22.93-11.77-12.85-5.43-26.33-9.47-38.9-15.44-25.7-12.21-36.42-33.6-34.81-61.42 1.5-26.14 15.37-44 38.49-55.16 15-7.23 31.16-9.4 47.66-8.83 15.17.52 30.19 2.14 44.65 7.29 3.42 1.22 4.93 2.8 5.06 6.68.55 16 1.51 32 2.31 47.92.06 1.14.01 2.28.01 3.64z" fill="#fff" fill-rule="nonzero"/><path d="M360 507c-2.92 3.48-4.79 6.27-7.2 8.48-15.64 14.36-44.58 16.9-62.58 5.62-21.32-13.35-22-46.78-.36-60.4 9.1-5.74 19.92-9 30.27-12.45 10.86-3.63 22.07-6.27 33.19-9.09 3.34-.84 4.52-2.27 4.35-5.77-.76-16.12-.7-32.3-2.07-48.36-.85-9.86-6.42-13.6-15.55-13-5.92.41-8.57 2.94-9.41 9-.92 6.58-1.36 13.28-2.88 19.72-2.45 10.42-7.48 14.52-18.07 15.51a53.337 53.337 0 01-10.94-.12c-16-1.83-23.06-14.87-16.17-29.46 3.48-7.36 9.64-11.76 16.76-15 11.86-5.4 24.54-7.21 37.37-8 16.66-1.08 33.3-1.25 49.58 3.4 20.38 5.84 30.2 18.7 30.26 39.78.08 28.16 0 56.33.11 84.49.05 12.5 3.52 16.19 15.9 17.93 1.4.2 3.76 1.26 3.77 1.95a6.624 6.624 0 01-1.88 4.65c-9.46 8.28-21 11.35-33.18 12a78.11 78.11 0 01-17.87-1.14C372.8 524.75 364.76 519 360 507zm-2.4-56.82c-4.37.45-8.16.58-11.86 1.28-6.48 1.22-10.64 5.14-12.25 11.63a60.906 60.906 0 000 30.11 23.91 23.91 0 004.12 8.39c3 4 9.42 4.87 14.66 2.94 4.86-1.8 5.56-5.42 5.41-10-.24-7.15-.06-14.32-.06-21.48l-.02-22.87zM973.55 510.2c-1.49 2.47-2.27 5-3.95 6.36-9.34 7.82-20.61 10.83-32.44 11.22a86.682 86.682 0 01-20.75-1.94 26.149 26.149 0 01-18.56-14.69 39.451 39.451 0 00-2.36-3.55 56.674 56.674 0 01-3.5 4.88c-17.39 19.22-47 18.3-62.81 10.28-23.95-12.11-26.18-47.71-3.18-62.12 9.11-5.72 19.92-9 30.28-12.41 12.14-4 24.64-6.9 38.14-10.6-.86-17.55-1.22-35.18-2.79-52.71-.86-9.66-6.25-13.32-15.15-12.87-6.22.32-9 2.86-9.81 9.1-.72 5.61-1 11.29-2.06 16.84-2.25 12.43-7.81 17.48-20.47 18.42a46.498 46.498 0 01-12.9-.79c-12.92-2.76-18.58-15.23-13-28.14 3.14-7.29 9-11.85 15.91-15.2 13.16-6.38 27.4-8.11 41.71-8.87 15.65-.83 31.32-.77 46.6 3.65 20.3 5.87 30.1 18.74 30.15 39.88.06 27.49 0 55 .06 82.49 0 14.91 2.85 17.95 17.56 19.91.58.09 1.21.32 3.32.86zm-80-60c-4.41.44-8.08.59-11.65 1.24-5 .91-9.36 3.29-11.12 8.25-4.57 12.83-4.68 25.87.46 38.51 3 7.42 12.43 9.72 19 5.21 1.47-1 3.17-3 3.2-4.62.22-15.99.13-31.95.13-48.63l-.02.04zM485.43 198.51h-97.76c.86 17.78 1.49 35.13 12.91 49.56 8.75 11.05 21.47 13.33 34.54 13.89 15.2.66 29.82-1.83 43.19-9.77l1.15.84c-1.12 2.55-1.73 5.54-3.46 7.57-14.94 17.6-34.15 27.3-57 29.38a102.164 102.164 0 01-39.54-3.81c-21.74-6.65-36.7-20.56-44.07-42.05a105.678 105.678 0 01-2.68-60.52c7.89-32.13 34.71-53.84 68.58-57.19a121.352 121.352 0 0133.17 1.59c27.19 4.93 42.48 22.54 48.07 49 1.47 6.79 1.89 13.77 2.9 21.51zM429 187.41c-1.51-14.25-2.28-27.7-4.53-40.9-1.66-9.77-8.15-13.66-17.34-12.43-6.9.93-10.81 5.63-13.21 11.6-5.68 14.17-5.81 29.12-6.24 44.75l41.32-3.02z" fill="#fff" fill-rule="nonzero"/><path d="M1066.61 519.18V524h-95.32c-1.36-3.34-.19-4.84 3.07-5.77 14.37-4.13 14.4-4.27 14.4-19.22 0-32.16-.35-64.33.2-96.48.18-10.63-2.68-18.33-12.12-23.62-2.86-1.6-6.63-3.09-7.59-7.92 8.63-1 16.68-1.9 24.75-2.75 15.39-1.64 30.8-3.2 46.19-4.84 5.47-.58 6.36.16 6.38 5.89v19.44c5.24-4.87 9.55-9.45 14.44-13.29 10.79-8.49 22.7-14 37-11.37 9.83 1.8 16.56 8.61 17.64 18.44.59 4.779.46 9.619-.38 14.36-2.15 10.83-9.93 17.33-21.23 18.74-12 1.5-20.87-2.94-25.92-14.2-3.57-8-7.48-9.56-17.39-5.12a6.02 6.02 0 00-2.87 4.48c-.14 34.82-.14 69.647 0 104.48 0 8.34 2 10.29 10.27 12.07l8.48 1.86zM272 502.22c-1.17 2.15-2 4.64-3.57 6.38-11.56 12.57-26.27 18.51-43.05 19.23a94.617 94.617 0 01-20.38-1.18c-19.54-3.44-30.6-16.08-31.07-37-.72-31.48-.41-63-.54-94.47v-12h-14.93c-2.06-5.37.14-7.36 4.54-9.28 22.54-9.82 41.36-24.08 53.17-46.34a5.003 5.003 0 013.23-2.36 61.383 61.383 0 018.48-.11c1.3 0 2.6.14 4.42.25v41.52h38.29c-.81 5.62-1.54 10.62-2.32 16h-35.46c-.16 1.83-.38 3.25-.38 4.67v95c.31 17 4.75 21.24 21.85 20.29 5.44-.31 10.86-1.18 16.29-1.79l1.43 1.19zM290.14 233.74c4.22-12.38 8.09-23.63 11.89-34.91 4.46-13.23 9.2-26.37 13.18-39.75 4.36-14.66 2-18.5-12.36-23.26-4.1-1.36-4.1-1.36-3.68-6.21H351c1.27 3.07.8 5.09-2.62 6.13a22.545 22.545 0 00-14.61 13.44 3041.346 3041.346 0 00-21.91 54A7471.296 7471.296 0 00281 282.77c-1.2 3.12-2.59 4.42-6.05 4.26-6.32-.31-12.67-.31-19 0-3.43.17-4.92-1.11-6.21-4.18a26903.903 26903.903 0 00-51.82-121.67c-2.09-4.89-4.36-9.71-6.72-14.47-2.7-5.45-6.68-9.58-12.83-11-3.41-.79-4.26-2.7-3.11-6.12h103.06c1.64 3.67.19 5.31-3.26 6.15-12.47 3.07-18.53 6.15-12.72 23.75 8 24.3 17.67 48.06 26.63 72 .17.51.46.93 1.17 2.25zM678.3 286.57c-1.33-3.52-.08-4.95 3.46-5.94 13.93-3.88 14-4.12 14-18.47 0-33.67-.11-67.33.08-101 0-7.72-2.42-13.54-9.1-17.58a85.37 85.37 0 01-8.15-5.78c-1.15-.9-2-2.21-3.77-4.28 10.7-1.14 20.06-2.2 29.43-3.13 15.24-1.52 30.51-2.84 45.74-4.51 4.46-.49 5.83.76 5.78 5.32-.467 44.16-.8 88.32-1 132.48-.07 12.19.89 13.27 12.66 16.6 3 .84 6.79 1 4.82 6.29H678.3zM472.69 29.36c0-5.51 1.21-10.91-.36-15.33-1.38-3.89-5.86-6.68-9.8-10.83L498.39 0c.242 1.077.406 2.17.49 3.27-.06 26.3-.07 52.59-.29 78.89 0 5 .17 9.39 6.18 10.78.57.13 1 1.12 2.13 2.63-7.71 1.2-14.64 2.28-21.56 3.34-1 .15-2 .16-3 .31-8.78 1.33-8.78 1.33-9.82-7.46-.726.356-1.428.76-2.1 1.21-19 15-40.15 7-44.06-16.91a51.01 51.01 0 01-.1-15.88c3.52-22.45 20.29-34.41 43-31.18 1.01.14 2.01.21 3.43.36zm.1 33.66c0-7-.12-14 0-20.94.1-4.22-1.58-7.07-5.49-8.44a8.722 8.722 0 00-10.28 2.94 16.31 16.31 0 00-3.02 6.17 78.152 78.152 0 00-.33 36.05c2 8.38 7.26 11.24 15.68 9.48 2.63-.54 3.57-1.65 3.51-4.32-.17-6.96-.07-13.96-.07-20.96v.02zM341.36 31.88l33.12-3.4v10.85c2.95-2 5-3.48 7.24-4.83 6.65-4.11 13.7-6.89 21.71-5.71 8.01 1.18 12.87 5.71 13.34 13.76.64 11 .39 22 .51 32.94 0 3.33.12 6.67 0 10-.19 4.77-.09 9.16 6.2 9.93.68.09 1.2 1.5 2.38 3.07h-41.81c1.34-1.5 2-3 2.95-3.16 3.45-.73 4.6-2.86 4.6-6.08 0-13 .16-26-.09-39-.14-7.16-9.32-11.68-15.05-7.61-.83.59-1.17 2.31-1.18 3.5-.07 14.16 0 28.31 0 42.46 0 3.21.47 5.93 4.42 6.66.91.17 1.57 1.72 3 3.38h-40.58l-.69-1c1-.85 1.83-2.21 2.95-2.48 4-1 5.26-3.42 5.24-7.27a3229.43 3229.43 0 010-42.45c0-3.87-1.3-6.72-4.66-8.72a34.865 34.865 0 01-4.06-3.26l.46-1.58zM621.83 98.65h-40.67l-.77-1.2c1.13-.83 2.14-2.06 3.4-2.41 3.49-1 4.8-3.17 4.79-6.6 0-14.67.15-29.34-.2-44 0-2.4-2.13-4.92-3.73-7.05-1.2-1.61-3.13-2.67-4.74-4 .11-.49.21-1 .31-1.48l33.26-3.51v10.96c2.68-1.8 4.4-3.41 6.44-4.26 5.62-2.34 11.21-5.27 17.11-6.32 10.69-1.89 18.34 4.48 19 15.3.52 8.8.22 17.66.26 26.49 0 5.16.08 10.33 0 15.49-.07 4.4 0 8.51 5.84 9.22.69.09 1.22 1.58 1.82 2.42-.82.4-1.64 1.14-2.46 1.15-12.32.07-24.63.05-38.67.05 1.73-1.9 2.42-3.36 3.41-3.62 3.12-.81 4.41-2.68 4.41-5.74 0-13.17.18-26.34-.12-39.5-.16-7.06-8.68-11.19-14.79-7.4-.85.52-1.38 2.2-1.39 3.35-.08 14.5 0 29 0 43.49 0 3 1.07 5 4.27 5.8.9.24 1.59 1.64 3.22 3.37zM185.6 97.09c1.3-.73 2.51-1.78 3.91-2.13 3.79-.94 5.54-3.08 5.53-7.07-.06-22.8-.1-45.61.05-68.42 0-5-2.8-6.59-6.91-7.53-.85-.19-1.47-1.37-2.19-2.1.71-.51 1.42-1.46 2.14-1.47 15.44-.08 30.87-.06 46.31-.06l.72 1.61c-1.16.73-2.26 2-3.48 2.1-5.32.58-6.81 3.84-6.8 8.6v66.42c0 5.63 1.65 6.74 7.13 7.39 8.56 1 14.44-2 17.81-10.07 2.63-6.28 5.55-12.44 8.5-18.59a22.206 22.206 0 013-3.86l1.63.84-2.52 35.87h-74.1c-.22-.51-.48-1.02-.73-1.53z" fill="#fff" fill-rule="nonzero"/><path d="M543.26 100.28c-32.13-.36-42.7-27.66-33.86-51.35 4.84-13 18.09-20.77 34.14-20.44 34.8.71 42.38 29.83 34.55 51.07-4.98 13.55-17.69 20.87-34.83 20.72zm-10.78-36.14c.81 8.23 1.26 16.22 2.47 24.1.82 5.37 4 7.54 8.95 7.61 5.09.07 7.84-2.86 8.54-7.41 2.41-15.72 2.78-31.5-.34-47.16-1.23-6.2-4.1-8.33-9-8.19-5.49.15-7.6 4-8.26 8.45-1.09 7.55-1.6 15.19-2.36 22.6zM304.51 100.29c-32.75 0-43.38-27.74-34.61-51.21 5-13.43 19.76-21.54 36.08-20.59 30.67 1.8 40.34 26.65 33.35 49.55-4.33 14.07-17.43 22.2-34.82 22.25zM293 64.24c.86 8.13 1.54 16.07 2.6 24 .66 4.92 3.66 7.62 8.87 7.62 5 0 7.69-2.67 8.51-7.38a130.914 130.914 0 00-.32-47.65c-.9-4.62-3.55-7.89-8.91-7.72-5.16.17-7.46 3.56-8.11 8-1.13 7.65-1.78 15.44-2.64 23.13zM694.41 87c.45-16.54 13.34-27.54 31.71-27.08 17.48.43 29.82 12.55 29.19 28.65-.64 16.48-13.62 27.77-31.26 27.2-17.99-.55-30.05-12.3-29.64-28.77z" fill="#fff" fill-rule="nonzero"/></svg>