<svg width="1312" height="552" viewBox="0 0 1312 552" xmlns="http://www.w3.org/2000/svg" fill-rule="evenodd" clip-rule="evenodd" stroke-linejoin="round" stroke-miterlimit="2"><g transform="translate(-833 -531.138)"><path fill="none" d="M833 531.138h1311.57v551.621H833z"/><clipPath id="a"><path d="M833 531.138h1311.57v551.621H833z"/></clipPath><g clip-path="url(#a)"><path d="M1073.889 640.03c-112.484 0-204 91.512-204 204.004 0 112.484 91.516 204.004 204 204.004h850.305c112.475 0 203.996-91.52 203.996-204.004 0-112.492-91.521-204.004-203.996-204.004h-850.305zm850.305 425.388h-850.305c-122.067 0-221.375-99.321-221.375-221.384 0-122.067 99.308-221.38 221.375-221.38h850.305c122.066 0 221.375 99.313 221.375 221.38 0 122.063-99.309 221.384-221.375 221.384z" fill="#fff" fill-rule="nonzero"/><path d="M1822.198 810.6c-16.934 0-30.675-13.72-30.675-30.658 0-16.954 13.741-30.679 30.675-30.679 16.933 0 30.679 13.725 30.679 30.68 0 16.937-13.746 30.658-30.68 30.658zm0-90.454c-33.009 0-59.775 26.771-59.775 59.796 0 33.009 26.766 59.759 59.775 59.759 33.029 0 59.779-26.75 59.779-59.759 0-33.025-26.75-59.796-59.78-59.796zM1548.027 810.6c-16.917 0-30.654-13.72-30.654-30.658 0-16.954 13.737-30.679 30.654-30.679 16.954 0 30.679 13.725 30.679 30.68 0 16.937-13.725 30.658-30.68 30.658zm0-90.454c-33.009 0-59.771 26.771-59.771 59.796 0 33.009 26.762 59.759 59.77 59.759 33.03 0 59.8-26.75 59.8-59.759 0-33.025-26.77-59.796-59.8-59.796zM1758.569 812.272c-3.78 1.1-9.563 2.183-11.763 2.183-10.217 0-12.442-3.52-12.442-13.3v-55.23h24.442v-23.079h-24.442v-32.625h-27.5l-5.779 32.625h-19.158v.017h-1.559c-15.666.075-27.483 9.633-35.062 24.604l-9.563-24.62h-19.72v114.708h33.704v-49.908c0-25.155 14.862-41.225 32.479-41.721h18.438v57.025c0 26.841 13.758 36.825 36.162 36.825 11.563 0 20.425-2.442 25.742-4.204l-3.98-23.3zM1922.815 759.138v78.417h-32.767V722.846h19.887l6.663 17.521" fill="#fff" fill-rule="nonzero"/><path d="M1916.452 740.476c9.963-11.559 23.592-20.313 39.558-20.313 27.3 0 38.53 21.763 38.53 41.946v75.446h-33.742V763.08c0-9.833-8.183-15.171-17.063-15.171-9.45 0-15.525 5.413-20.862 11.192M1356.785 681.326h37.558l51.575 98.233v-98.233h31.109v156.25h-34.03l-55.091-108.013v108.013h-31.121v-156.25zM2094.077 622.659v5.596h-8.183v27.52h-6.388v-27.52h-8.033v-5.596h22.604zM2098.66 655.776v-33.117h8.642l5.742 21.687 5.837-21.687h8.734v33.117h-5.267v-25.909h-.15l-6.692 25.909h-4.679l-6.754-25.909h-.146v25.909h-5.266zM1347.41 976.034l7.796-12.125c6.333 4.68 15.837 9.025 27.429 9.025 11.267 0 18.22-5.104 18.22-13.966 0-10.196-8.787-12.892-23.228-17.917-12.95-4.55-25.684-11.084-25.684-29.43 0-17.191 13.559-26.554 31.796-26.554 12.125 0 21.058 2.388 28.254 6.625l-6.237 12.9c-6.038-3.137-13.25-5.266-21.725-5.266-10.167 0-16.254 3.833-16.254 11.891 0 9.467 7.058 11.871 20.345 16.238 13.855 4.492 29.1 10.9 29.1 31.22 0 17.197-12.291 28.534-34.345 28.534-16.367 0-28.388-5.65-35.467-11.175zM1446.797 886.63h59.05v13.725h-42.245v27.1h33.362v13.43h-33.362V972.2h44.812v13.704h-61.617V886.63zM1532.452 936.35c0-28.97 13.87-51.262 41.558-51.262 12.4 0 22.2 3.925 29.1 11.963l-9.8 11.337c-5.925-5.8-10.95-8.641-19.025-8.641-16.254 0-23.758 13.3-23.758 37.87 0 23.063 7.92 34.75 23.904 34.75 8.88 0 15.117-4.662 20.587-10.458l9.892 11.025c-7.196 8.496-16.204 14.275-30.625 14.275-28.55 0-41.833-21.762-41.833-50.858zM1632.281 947.913V886.63h16.933v64.013c0 13.65 3.38 22.583 17.784 22.583 14.275 0 17.812-8.933 17.812-22.583V886.63h17.1v61.283c0 24.596-9.466 39.296-35.042 39.296-25.154 0-34.587-14.7-34.587-39.296zM1767.377 930.847c12.587 0 19.062-4.092 19.062-15.559 0-11.025-6.604-14.954-18.075-14.954h-15.958v30.513h14.97zm38.146 55.079h-18.367l-19.062-42.109h-15.688v42.109h-16.808V886.63h32.387c20.05 0 35.704 7.192 35.704 28.95 0 14.846-8.9 22.296-18.808 25.837l20.642 44.509zM1834.269 886.63h59.046v13.725h-42.259v27.1h33.321v13.43h-33.32V972.2h44.787v13.704h-61.575V886.63zM1948.044 972.2c23.179 0 31.104-10.695 31.104-36.287 0-22.458-6.22-35.579-29.013-35.579h-9.025v71.867h6.934zm-23.813-85.57h24.788c32.366 0 47.92 17.52 47.92 49.283 0 32.359-15.829 50.009-47.062 50.009h-25.646V886.63zM1072.872 680.738c-43.596 0-84.604 16.992-115.483 47.833-30.842 30.859-47.83 71.867-47.83 115.463 0 43.588 16.988 84.596 47.83 115.471 30.858 30.82 71.866 47.813 115.483 47.83 43.592-.017 84.6-17.01 115.48-47.85 30.804-30.855 47.795-71.863 47.812-115.45-.017-43.597-17.008-84.605-47.83-115.48-30.878-30.825-71.887-47.817-115.462-47.817zm0 402.159c-131.7 0-238.87-107.171-238.87-238.863 0-131.7 107.17-238.85 238.87-238.85 131.684 0 238.83 107.15 238.85 238.85-.02 131.692-107.166 238.863-238.85 238.863zM1333.06 568.392h18.62v18.625h-18.62zM1333.06 531.276h18.62v18.662h-18.62zM1280.66 586.884h17.392v18.183h-17.392zM1246.18 622.592h17.542v17.392h-17.541zM1298.047 605.071h19.505v17.521h-19.505z" fill="#fff" fill-rule="nonzero"/><path fill="#fff" fill-rule="nonzero" d="M1228.714 605.93h17.467v16.662h-17.467zM1280.66 622.592h17.392v17.392h-17.392zM1314.635 549.934h18.425v18.458h-18.425zM1280.66 568.392h33.975v18.492h-33.975zM1263.722 586.888h16.934v35.704h-16.934zM1263.726 639.984v17.525h-17.545v-17.525h-29.1v12.625h-15.596v15.575h17.412v17.358h-17.412v-17.358h-18.513v27.23h-17.504v17.374h-11.612v17.45h-12.775c-14.346 21.338-50.309 87.85-61.167 114.93-39.192-54.53-69.613-76.142-93.575-83.959-12.917-3.892-28.492 10.183-7.03 32.33 49.3 54.216 64.826 99.108 79.813 134.92 7.93 18.883 43.467 21.821 50.604 2.588 15.175-40.638 37.175-86.3 63.23-123.805v-19.429h13.908v-17.525h14.62V749.98h17.467V730.4h-17.666v-17.795h17.666V730.4h17.284l-.034-17.613h13.85v-21.262h15.6V676.9h15.009v-36.917h-16.934z"/></g></g></svg>