<svg xmlns="http://www.w3.org/2000/svg" width="325.43" height="52.43" viewBox="0 0 325.43 52.43"><defs><style>.a{fill:#fff}</style></defs><path class="a" d="M52.98 34.48c-1.86 1.66-6.08 4.67-13.25 4.67-9.28 0-16.51-5.06-16.51-15.23 0-10.62 7.43-15.81 16.64-15.81 10.56 0 12.67 7.75 13 11.84a100.19 100.19 0 01-17.73 5.26c.59 4 2.59 9.27 10.49 9.34a14.94 14.94 0 006.91-1.66zM34.55 21.94a57.37 57.37 0 008.71-1.54c-.13-1.79-.7-9.41-4.93-9.41-3.39 0-3.9 4.42-3.9 7.55-.01 1.16.12 2.24.12 3.4z"/><path class="a" d="M78.48 35.51a20.74 20.74 0 01-11.39 3.65C50 39.16 50 26.74 50 24.16c0-4.22 3.84-16 17.92-16 8.71 0 9.09 2.5 9.86 2.56a9.32 9.32 0 01-3.46 6.27h-1c-.9-1.22-3.84-5.25-7.11-5.25s-5.06 4.22-5.06 9.66c0 9.09 5.25 13.19 11.33 13.19a24.21 24.21 0 005.25-.51zM127.49 34.48c-1.86 1.66-6.08 4.67-13.25 4.67-9.29.01-16.52-5.05-16.52-15.23 0-10.62 7.43-15.81 16.64-15.81 10.56 0 12.67 7.75 13 11.84a100.19 100.19 0 01-17.73 5.26c.64 4 2.56 9.28 10.5 9.35a14.94 14.94 0 006.91-1.66zm-18.44-12.54a57.37 57.37 0 008.67-1.54c-.13-1.79-.7-9.41-4.93-9.41-3.39 0-3.9 4.42-3.9 7.55.03 1.16.16 2.24.16 3.4zM19.34 18.21c-.19-1.79-2-7.23-6.21-7.23a3.07 3.07 0 00-3.27 3.23c0 1.54 0 3.33 8.83 7.43a9.23 9.23 0 015.63 8c0 7-6.21 9.54-13.44 9.54A21.85 21.85 0 011.02 37a56.76 56.76 0 01-1-9.73h3.63c.7 5.82 4.35 9 7.36 9 3.2 0 3.71-1.79 3.71-3.59 0-1.34-1.15-3.39-4.67-5.25C5.82 25.25.26 23.27.26 17.06c0-5.44 4.16-9 12.8-9a19.7 19.7 0 018.66 1.84 36.49 36.49 0 01.69 8.31h-3.07"/><path class="a" d="M126.81 9.07v-3c0-7 10.43-5.94 10.43-5.94v9c2.82.26 4.55.32 7.17.51v1.57a69.65 69.65 0 01-7.17.7v10.5c0 6.72.06 12.29 5.89 12.29a10.87 10.87 0 003-.58l.45 1.66c-1.86 1.2-4.86 3.38-11.86 3.38-1 0-7.87 0-7.87-9.09v-21zM80.39 39.11l.09-19.23c0-4.29 0-6.66-1.79-6.66h-1.8l-.51-1.91a106.73 106.73 0 0113.34-3.2 21.3 21.3 0 01.7 4.48c1.66-1.66 4-4.48 7.49-4.48s4.86 2.56 5.57 4a8.68 8.68 0 01-4.54 5.76c-1.86 0-3.46-1.86-6.53-2.63a13.41 13.41 0 00-1.54-.32v15.54l-.05 2.75c0 7-10.43 5.9-10.43 5.9zM227.88 36.36c-1.66 1.22-5 2.69-10.12 2.69-7.3 0-14.91-4.29-14.91-13.51C202.85 13.25 211.56 8 219.3 8c3.07 0 6 .7 7.43 1.86a9.89 9.89 0 01-1.66 4.67h-.35a9 9 0 00-7.49-3.52c-4.61 0-8.45 3.65-8.45 10.88-.06 10.12 5.14 14.92 12.44 14.92a13.71 13.71 0 006.15-2z"/><path class="a" d="M253.89 37.45a7.57 7.57 0 01-4.87 1.6c-3.26 0-4.42-1.34-5.06-2.69a15.06 15.06 0 01-9.41 2.69c-4.74 0-7.94-2.69-7.94-6.21 0-8.32 11.07-10.82 16.71-12.48v-1.47c0-4.22-1.15-7.87-6-7.87-5.12 0-6.72 4-7.94 6.4h-.46a7.41 7.41 0 01-1.66-2.56c1.92-2.56 6-6.85 12.8-6.85 7.3 0 8.83 3.84 8.83 10.37v9.15c0 4.48 0 9.28 3.52 9.28a2.16 2.16 0 001.15-.26zm-11.46-14.08c-3.65 0-9.92 1.6-9.92 7.62 0 3.65 2.3 5.83 6 5.83a6 6 0 004.82-2.61V23.37h-.9zM306.36 35.47a18.47 18.47 0 01-11.2 3.59c-8.07 0-14.66-5.38-14.66-14.47 0-10.82 7.49-16.58 14.85-16.58 8.58 0 10.43 6.21 11.26 9.67a94.1 94.1 0 01-20.23 6.85c.26 4 3.33 11.52 12 11.52a14.16 14.16 0 007.23-2zm-20-13.76a113.79 113.79 0 0014.47-3.65c-.9-4-2.5-7.81-7.36-7.81-5.42-.04-7.08 6.78-7.08 11.45z"/><path class="a" d="M321.53 17.61c0-2.88-2-7.49-6.21-7.49-2.43 0-4.1 1.73-4.1 4.54 0 7.3 14.21 5.18 14.21 15.43 0 6.08-5 9-11.07 9a17.51 17.51 0 01-8.13-1.88 28 28 0 01-1.21-8.58h1.7c1.28 4.16 3.46 8.32 8.58 8.32a4.63 4.63 0 004.57-4.74c0-8.7-14.21-5.63-14.21-16.07 0-5.25 4.67-8.13 10.24-8.13a12.3 12.3 0 016.82 1.85 26.77 26.77 0 01.83 7.75h-2zM186.89 35.42a20.29 20.29 0 01-14.68 6.54c-10.9.1-19.81-7.27-19.81-19.56 0-14.62 10.12-22.41 20.07-22.41 11.59 0 14.1 8.39 15.23 13.06a127.25 127.25 0 01-27.34 9.26c.35 5.36 4.5 15.57 16.18 15.57 5.28 0 7.79-3.47 9-4.07m-25.19-15.3a154.13 154.13 0 0019.55-4.93c-1.18-5.37-3.37-10.56-9.95-10.56-7.35 0-9.6 9.19-9.6 15.49z"/><path class="a" d="M199.64 17.61c0-2.88-2-7.49-6.21-7.49-2.43 0-4.1 1.73-4.1 4.54 0 7.3 14.21 5.18 14.21 15.43 0 6.08-5 9-11.07 9a17.51 17.51 0 01-8.12-1.88 28 28 0 01-1.22-8.58h1.73c1.28 4.16 3.46 8.32 8.58 8.32a4.63 4.63 0 004.54-4.74c0-8.7-14.21-5.63-14.21-16.07 0-5.25 4.67-8.13 10.24-8.13a12.3 12.3 0 016.79 1.86 26.77 26.77 0 01.83 7.75h-2zM267.17 8.01a15.7 15.7 0 00-8.58 2.69 6.9 6.9 0 00-.77-2.69c-2.24 0-7.3 1.66-9.15 2.24l.25 1.54 1.41-.38c.13 0 .58-.06.9-.06 1.79 0 1.79 1.79 1.79 8.07v33s5.62.6 5.62-3.2V38.35a18.74 18.74 0 005.25.71c7 0 17.28-4.16 17.28-17.09-.05-8.97-6.39-13.96-14-13.96zm-1.45 28.8a10.24 10.24 0 01-7.11-2.31v-22a11.33 11.33 0 015.38-1.47c5.76 0 11.26 4 11.26 12.35-.02 8.18-3.16 13.43-9.53 13.43z"/></svg>