<svg width="6396" height="902" viewBox="0 0 6396 902" xmlns="http://www.w3.org/2000/svg" fill-rule="evenodd" clip-rule="evenodd" stroke-linejoin="round" stroke-miterlimit="2"><g transform="translate(0 -549.044)"><path fill="none" d="M0 549.044h6395.83v901.912H0z"/><clipPath id="a"><path d="M0 549.044h6395.83v901.912H0z"/></clipPath><g clip-path="url(#a)"><path d="M2404.119 901.487v399.192h-145.842V901.487H2110.93v-127.05h440.534v127.05h-147.346zM2713.015 997.713c-30.83 0-48.113 21.041-52.625 60.129h112.775c-6.788-39.838-20.334-60.13-60.15-60.13zm178.908 144.354H2660.39c4.512 43.6 30.054 63.12 66.9 63.12 34.575 0 63.158-7.52 102.241-27.812l51.855 86.459c-48.842 28.55-99.23 45.104-160.846 45.104-118.8 0-184.196-84.225-184.196-205.259 0-136.041 76.666-205.954 180.412-205.954 108.263 0 175.934 71.413 175.934 217.992 0 11.304 0 19.558-.767 26.35zM3143.673 1308.938c-115.746 0-184.92-73.654-184.92-206.725 0-121.05 61.65-204.488 187.933-204.488 74.425 0 117.292 34.575 151.858 90.204l-93.216 70.667c-18.788-34.592-31.596-51.121-60.88-51.121-34.608 0-51.891 34.588-51.891 96.975 0 62.425 18.791 94.717 55.633 94.717 25.542 0 43.6-14.275 68.408-51.117l85.692 66.9c-45.837 67.671-88.7 93.988-158.617 93.988zM3605.165 1300.68v-224.047c0-51.125-17.283-64.645-45.1-64.645-28.587 0-45.875 13.52-45.875 63.137v225.554h-135.308V806.767l135.308-54.13V932.3c24.809-18.792 52.625-34.575 99.234-34.575 86.466 0 127.82 57.88 127.82 161.62v241.334h-136.079zM4065.153 1308.938c-156.375 0-239.83-115.784-239.83-271.392 0-169.142 99.238-271.384 240.568-271.384 129.32 0 180.446 55.634 216.53 154.871L4150.11 972.9c-18.824-48.863-36.845-79.692-84.958-79.692-60.887 0-87.196 60.884-87.196 144.338 0 80.45 25.542 144.342 88.7 144.342 45.838 0 65.396-24.809 93.95-74.43l123.313 65.4c-35.333 69.176-94 136.08-218.767 136.08zM4616.795 1054.833c-17.291-18.791-36.833-33.066-63.125-33.066-33.125 0-53.416 15.779-53.416 63.891v215.021h-135.292V905.983h135.292v28.571c23.291-22.554 49.625-36.83 84.25-36.83 28.541 0 48.083 6.755 63.875 16.534l-31.584 140.575zM4938.462 1300.68v-26.35c-24.041 18.787-52.625 34.608-98.458 34.608-86.459 0-127.792-57.875-127.792-161.659V905.983h136.042v224.046c0 51.088 17.292 64.625 45.125 64.625s45.083-13.537 45.083-63.158V905.983h136.084v394.696h-136.084zM5398.463 1300.68v-224.047c0-51.125-17.292-64.645-45.084-64.645-28.583 0-45.875 13.52-45.875 63.137v225.554h-135.333V905.983h135.333V932.3c24.792-18.792 52.625-34.575 99.209-34.575 86.458 0 127.833 57.88 127.833 161.62v241.334h-136.083zM5798.255 1308.938c-115.75 0-184.917-73.654-184.917-206.725 0-121.05 61.667-204.488 187.958-204.488 74.417 0 117.292 34.575 151.834 90.204l-93.209 70.667c-18.791-34.592-31.583-51.121-60.875-51.121-34.625 0-51.916 34.588-51.916 96.975 0 62.425 18.791 94.717 55.666 94.717 25.542 0 43.584-14.275 68.375-51.117l85.709 66.9c-45.834 67.671-88.709 93.988-158.625 93.988zM6259.755 1300.68v-224.047c0-51.125-17.292-64.645-45.083-64.645-28.625 0-45.875 13.52-45.875 63.137v225.554h-135.334V806.767l135.334-54.13V932.3c24.791-18.792 52.625-34.575 99.208-34.575 86.458 0 127.833 57.88 127.833 161.62v241.334h-136.083zM0 549.087v300.638h300.638V1451H601.28V849.725h300.633V549.087H0zM1202.555 1150.358V849.725H901.913V1451h901.918v-300.642h-601.276zM1202.555 549.087h601.276v300.638h-601.276z" fill="#fff" fill-rule="nonzero"/></g></g></svg>