<svg width="629" height="125" viewBox="0 0 629 125" xmlns="http://www.w3.org/2000/svg" fill-rule="evenodd" clip-rule="evenodd" stroke-linejoin="round" stroke-miterlimit="2"><path d="M239.43 56.09h-1.05v-3.12a1.812 1.812 0 011.69.51 1.782 1.782 0 01-.62 2.63m2.41-3.37c-1.85-.78-4.28-.58-6.29-.62 0 .23-.05.45.07.62.228.023.452.07.67.14v3.21a2.75 2.75 0 00-.67.07c0 .23-.07.45 0 .62 2-.11 3.87.56 5.72 0a2.763 2.763 0 001.29-2.3 2.002 2.002 0 00-.81-1.76l.02.02zM245.27 27.46l.61.23s-.24.48-.1.72c.14.24.47.62.77.46.455-.196.7-.702.57-1.18h.44l.07.4c-.06.73-.28 1.25-1.27 1.2-.99-.05-1.23-1-1.09-1.83m1.95 2.72l.77.24.24.32.37-4.3-.37-.3a2.263 2.263 0 01-1.83.79c-.69 0-1.43-.15-2-.17.23.73-.09 1.59.36 2.43a2.425 2.425 0 002.46.99zM252.16 27.43h.45c-.132.473.103.977.55 1.18.32.16.61-.15.79-.46.18-.31-.11-.72-.11-.72l.62-.22c.13.81-.2 1.77-1.1 1.82-.9.05-1.2-.47-1.26-1.2l.06-.4m1.56 2.21c1.42-.2 1.52-2.15 1.47-3.5a4.502 4.502 0 01-2.19.66 2.428 2.428 0 01-1.64-.83l-.32.17.84 4.43a2.653 2.653 0 011.84-.93z" fill="#fff" fill-rule="nonzero"/><path d="M300.17 60.07a2.192 2.192 0 00-1.18-2 1.582 1.582 0 00-1.51.06c-.73.39-.68 1.17-.57 1.79.17.28.4.62.79.51.73-.45-.56-1.29.5-1.57.51-.06.79.56 1 .89.105.806-.292 1.6-1 2a3.102 3.102 0 01-2.25-.17 3.22 3.22 0 01-1.34-2.3 3.266 3.266 0 011.9-3.09c2.59-1.23 4.44 1.07 6.28 2.7a3.31 3.31 0 00-2.57 1.23m-10.38-6.73a2.903 2.903 0 01.06-2.63 3.621 3.621 0 012.3-1.8 4.292 4.292 0 013.48 1.04c1.46 1.47 2.36 3.49 3.59 5.16a4.536 4.536 0 00-4.6 1 5.88 5.88 0 00-.9 2.07 38.266 38.266 0 00-3.98-4.89l.05.05zM277.4 58.5a21.833 21.833 0 00-9.4 1.18 30.4 30.4 0 00.23-6c1.63-2.07 4.43-1.85 6.95-2 4.49-.17 8.24.75 12.62 1.62.9 2.58 3.81 4.32 4.82 6.84-5.18.49-10.01-1.36-15.22-1.64zm-1.46 2.92a19.532 19.532 0 01-7.29-.68c2-1.12 4.49-1.23 6.84-1.29l.56.06c-.17.62 0 1.29-.11 1.91zm-17.16 0L239.65 58a26.786 26.786 0 00-8.24 0c.454-1.738.606-3.541.45-5.33.28-.95 1.4-.89 2.13-1.34 3.13-.79 6.44 0 9.53.34 7.8 1.45 15.43 3.19 23.56 3.7.28 1.79-.17 3.7-.12 5.44.57.89 1.57.84 2.42 1.06-3.54.192-7.089.041-10.6-.45zm-19.86-.73a24.799 24.799 0 01-7.4-1l-.28-.33c2.13-1.07 5.33-.9 7.74-.4l-.06 1.73zm-32.25.05c2.42-1 4.94-1.57 7.24-2.86-2.41-1.23-5-2.13-7.24-3.76 8.038.737 16.114.964 24.18.68.05 1.79-.68 3.48-.5 5.1.89 1.12 2.23 1 3.41 1.35-9.026.677-18.096.506-27.09-.51zm16.55-13c2.58 0 4.71-.95 7.06-1.46 2.25-.34 4.49.11 6.51-.61.11 1.12.73 2.19.28 3.36l-3.08.34c-1.29.39-2.81 1-3.37 2.24-.27-.39.23-1.34-.61-1.34a.65.65 0 00-.62.39c.05.22.22.5.11.73a.893.893 0 00-.56 1.4c-.11.11-.33.06-.45.06-.56-.4-.34-1.18-1-1.52-.23-.45.39-.73 0-1.06a.822.822 0 00-1 0c-.34.61.17 1.51-.84 1.68l.22 1c-.73.33-.78-.56-1-.9-.11-.56-.78-.9-.28-1.46.17-.28-.22-.5-.45-.5a.632.632 0 00-.67.39c.39.67-.4 1-.84 1.12l.11 1.35c-.56 0-.73-.62-.9-1 .11-.56-.61-.45-.67-1 .42-1.2.54-2.88 2.05-3.22v.01zm11.1-13.57c.57-3.81 4.49-5.72 6.79-8.36.06 1.63-1.23 2.75-2.3 3.82l-4.49 4.54zm5.11-10.71c-.06 2.24-2.47 3.42-4 4.65a8.062 8.062 0 014-4.66v.01zm1.17-1.91a5.522 5.522 0 014.61 1.45c.13-.22.44-.34.55-.57a.375.375 0 000-.22 15.162 15.162 0 013.41-.72c1.431-.06 2.865.051 4.27.33.06.23.28.56.56.56.73-.39 1.12-1.23 1.91-1.57a6.277 6.277 0 012.25-.33 4.753 4.753 0 01-1.18 2.86c-.34.44-1.07.16-1.18.73 1.29 1.79 1.12 4.59.67 6.73a2.071 2.071 0 01-1.4 1.2 3.25 3.25 0 01-.82.12l-.07.33 1.13.72-.1.65-1.08-.51-.16.57 1.11.72-.12.54-1.12-.45-.22.68 1.13.68-.22 1-3.43-1.35v-1.54a2.435 2.435 0 001.29-1.4c.06-.34.17-.9-.16-1.18a4.002 4.002 0 01-2.1.75 3.241 3.241 0 01-2.11-.47 1.404 1.404 0 00.22 1.63c.341.336.76.584 1.22.72v1.62l-3.24 1.53-.29-.89 1-.64-.23-.78-1.08.62-.22-.52 1.17-.75-.26-.71-1.19.64-.14-.41 1.17-.88s-.07-.42-.08-.45c-.95-.11-2.13-.33-2.46-1.46a16.349 16.349 0 01-.51-5.72c.05-.28.73-.45.28-.73-1.63.06-2.3-1.79-2.81-2.91l.03-.22zm2.4-4.38a.85.85 0 01-.55-.67A10.482 10.482 0 01245 15c.06 0-.06 1.13 0 1.13-.09.26-.31.08-.67.54a.75.75 0 00.56 1.12 4.14 4.14 0 01.61 0c.23.67-.26 1-.78 1.23-.73.35-1.06-.62-1.06-.62l.56-.28-.73-1.4s-.27.54-.49.45zm11.5 2.58a1.25 1.25 0 01-.33.39 20.426 20.426 0 00-9.6.56 1.377 1.377 0 01-.45-.34 18.001 18.001 0 0110.34-.61h.04zm-2.08-5.33s-.6 1-.61 1.06c-.34.06-.9-.12-1 .44-.28.78.28 1.36.9 1.13.003.438-.263.836-.67 1a1.005 1.005 0 01-1.25-.54v-.36h.57v-1.77h-.61l.05-.67a3.01 3.01 0 00-.88-.12c-.31 0-.73.12-.73.12v.78h-.52v1.7h.69s0 .87-.51 1c-.86.22-1.13.1-1.3-.46v-.38s.8 0 .78-.64c0-.41-.05-.87-.53-.92-.48-.05-.39.15-.74.15 0-.05-.33-1.17-.35-1.22a11 11 0 016.67-.3h.04zm.51 2.69a.783.783 0 001.18-.62c0-.47-.54-.76-.93-.81l-.08-1.09 2.41 1.06-.17.73-.73-.34-.44 1.35.5.22c-.202.567-.83.872-1.4.68-.51-.11-.55-.73-.38-1.18h.04zm12.4 14.3c-2.37-2.35-6.74-3.25-7-7 2.02 2.74 6.17 3.3 6.96 7h.04zm-.9-4.88c-1.63-1.12-4.66-1.79-4.77-4.43 2.2.51 3.55 2.58 4.73 4.43h.04zM261 44.37c-1.41-.39-3.37-.39-4.33-2a4.712 4.712 0 01-.47-4.37c.05 2.83 2.97 4.57 4.8 6.37zm2-.17c-2-3-6.62-5-6.06-9.26 1 3.54 6.71 5 6.06 9.26zm-4.49-16c2.13 2.75 6.62 4.2 6.39 8.19-1.9-2.9-6.4-4.39-6.4-8.23l.01.04zm5.66 12.23c-2-3.15-7-4.66-6.17-8.87 1.45 3.22 6.27 4.79 6.16 8.83l.01.04zm-15.81 1.17l.67-.05a3.77 3.77 0 00-1.13 2.41l-1.4.06c.38-.83.72-2.12 1.85-2.46l.01.04zm3.7 2l-2.36.22a3.083 3.083 0 011-2.36c.95.22 1.18 1.22 1.35 2.07l.01.07zm3.36-.12l-1.62-.16a4.322 4.322 0 00-1.18-1.91c1.38-.3 2.18 1.05 2.79 2l.01.07zm-2.3-3.7l-5.05.28a.592.592 0 01-.27-1 5.22 5.22 0 012.8-1.46 5.006 5.006 0 013 1.35.591.591 0 01-.49.76l.01.07zm-11.44 8v1.79l-1-.11a2.67 2.67 0 01.99-1.78l.01.1zm-.95-1.24c.67-2.46 4.49-4.26 4.15-7.46a4.101 4.101 0 01.44 3.42c-.68 1.92-3.15 2.6-4.6 3.94l.01.1zm-1.29 2.8l-1.07-.1c.15-.254.339-.484.56-.68.33-.04.33.44.5.68l.01.1zm-.62-3.58c-.95-3 2.41-5 3.7-7.46a9.493 9.493 0 001.13-2.69c1.35 4.16-3.27 6.63-4.84 10.05l.01.1zm-3.14-7.07c-.62-4.1 3.93-6.39 5.61-9.31-.18 3.72-4.1 6.02-5.62 9.21l.01.1zm6.45-6c1.12 4.32-4.32 6.51-5 10.38-.73-4.42 3.47-6.89 4.99-10.43l.01.05zm25.57 8.42c.45-.62 0-1.4-.11-2.08l-.84-2.8c5.72 1.06 10.77 4.32 16.72 5.16a3.451 3.451 0 002.07 1.91l2 .16a8.382 8.382 0 001.9 4.83 14.453 14.453 0 00-1.9 2.91c-4.88-.72-9.82-1.91-15.09-1.34.9-1.35.39-3 0-4.49-.84-.62-1.12-2-2.36-2.13-.83 1 .9 1.68.9 2.74a4.664 4.664 0 01-.73 4.22c-1.23.61-3.41 1.29-3.36 3.19a57.688 57.688 0 01-7.8-.84c-1.17-1-2-2.69-3.7-2.41a1.33 1.33 0 00-1.12-.12c.22 1-1.51.74-.79 1.8-.95.4-.61-1.18-1.28-1.51.11-.51.72-1.29-.12-1.52-.39-.06-.67.34-.73.62.56 1.07-1.4.9-.61 2-.34.17-.79-.28-.84-.61.11-.62-.85-1-.34-1.63a.42.42 0 000-.67c-.17-.4-.62-.12-.84 0-.45.5.39 1.74-.85 1.62v.73c-1.12.28-.56-1.18-1.4-1.46.05-.56.95-1.23.11-1.62a.882.882 0 00-.84.61c0 .51-.23 1.07-.84 1.07l-.06.9c-1.12.17-.5-1.29-1.34-1.63a3.541 3.541 0 011.74-2.86c4.59.45 9.47-2.13 13.57.67 1.85-1 4.82 1.18 5.77-1.57l.4-1.68a19.417 19.417 0 001.79 1.46c.5-.45 0-1-.05-1.4a17.088 17.088 0 01-1.11-4.34c.84.43 1.24 1.55 2.07 2.06l.01.05zM285.2 38a3.713 3.713 0 012.91-1.46 3.27 3.27 0 012.69 1.35c1.63 2.3-.9 6.25 2.41 9.26-.78-.23-1.4.22-2.13.16-2-1.79-1.79-4.71-1.51-7.23a2.083 2.083 0 00-1-1.4 1.704 1.704 0 00-2 .73c-.06.44 0 1.17.61 1.29.23 0 .39-.23.5-.4a.922.922 0 01-.16-.67.762.762 0 01.84-.11c.45.39.28.9.11 1.4a2.153 2.153 0 01-2.13.62A2.424 2.424 0 01285.2 38zm.16-6.78c-4.37.56-10.6 4.71-13.91-.45a5.219 5.219 0 01.51-5.55c4-4.21 9.25.45 13.85-.84a2.83 2.83 0 001.34-2.19v-1.12c.544.911.608 2.033.17 3a3.001 3.001 0 01-1.74 1.62c-4 .62-7.63-2.41-11.5-.62-1 .74-1.6 1.906-1.62 3.15-.057.847.249 1.68.84 2.29 3.31 2.81 7.18-.33 10.65-.67a5.096 5.096 0 014.94 1.68 4.97 4.97 0 01-.73.79 4.575 4.575 0 00-2.8-1.12v.03zm-3.25-1.68c-2.19.33-4.26 1.62-6.51.95-.62-.28-.56-1.07-.33-1.57.61-.84 1.68-.34 2.58-.39l4.26 1.01zm5.27-2.42a4.733 4.733 0 01-3.7.73c-3.31.06-6.62-2.75-9.65-.45l-.33.51a1.644 1.644 0 01.94-1.86c4.39-2.07 12.23 4.89 13.58-2.91a3.508 3.508 0 01-.84 3.95v.03zm5.08 3.21a2.322 2.322 0 012-.17 2.613 2.613 0 011.63 2c-.06 3.42-1.51 6-1.29 9.81a20.845 20.845 0 001.08 6.03c-3.19-2.29-3.38-4.68-3.31-8.92 0-1.33-1.08-2.34-2.21-3.08a4.66 4.66 0 00-2.61-.39 38.016 38.016 0 004.71-5.31v.03zm4.43-6.71c.39 1.62 2.26 2.51 3.72 2.68-1.29 1.18-1.68 3.37-3.65 3.7a2.846 2.846 0 01-2.8-2c-.67-2.35 1.73-2.67 2.73-4.41v.03zm-.51 17.77a21.129 21.129 0 012.85-10.75 14.025 14.025 0 011.94-2.55v-2.7a4.1 4.1 0 01-2.91-1.39 3.424 3.424 0 01-1-2.68 3.357 3.357 0 012.34-3.11 3.477 3.477 0 013.62.84c.608.656.913 1.538.84 2.43a1.929 1.929 0 01-1.72 2.07 1.702 1.702 0 01-1.64-.84c-.29-.53-.31-1.52.29-1.52.81 0 .09.58.58.8a.573.573 0 00.77-.19.933.933 0 00-.18-1 1.314 1.314 0 00-1.51-.34 1.667 1.667 0 00-.93 2.07 2.156 2.156 0 002 1.74h3.4l1.91-1.29 2.36-1.16a3.55 3.55 0 00-.61-1.49l-2.92 1.55a6.472 6.472 0 00-2-4.45 5.22 5.22 0 00-3.225-1.116c-2.864 0-5.22 2.357-5.22 5.22 0 .203.012.405.035.606-1.52 1.91-4.66 3.54-3.31 6.4-1.35.05-2 1.62-2.92 2.35l-1.79-1.46 1.45-1a5.647 5.647 0 001.18-5.66c-.62-2-2.41-4.1-4.6-4.38a3.054 3.054 0 00-2.69.62 2.392 2.392 0 00-.56 1.91c.173.69.798 1.179 1.51 1.18.9-.28-.33-.73 0-1.29.12-.45.68-.51 1.13-.45.663.269 1.044.979.9 1.68-.278.556-.8.952-1.41 1.07-4-.17-8.24-3-11.94-.4a6.446 6.446 0 00-3.4 5.22 6.816 6.816 0 002.36 5.56c3.87 3.19 9.25.72 13.34-.39.73-.18 1.69-.18 2 .55-1.7 1.63-3.58 3.35-3.7 5.73-5.71-1.18-10.54-3.87-16.26-5.11-.67.06-.84-.78-1-1.17l2.13.73.11-.18c-.89-1.68-1.62-3.47-2.35-5.15.73.05 1.29.73 2 .61v-.34c-2.58-2.8-3.59-7.57-7.86-8.29-.1-.85.4-1.58.34-2.36h-.5l-4.15 1.18-.17-.17A11.46 11.46 0 01257 16c-.34-.51.51-.79.23-1.4-.28-.61-1.07-.68-1.57-.57.11-1.9-1.85.17-2.14-1.39a1.093 1.093 0 00-1.28.16l-.51-.67a1.933 1.933 0 00-1.29.17c-.17-1-1.4-1.63-.95-2.75.413-.018.827.019 1.23.11.06-.578.06-1.162 0-1.74l-1.47.08V6.4c-.63-.06-1.13.16-1.8.11 0 .51.28 1.12.28 1.68h-1.52c.003.567.06 1.133.17 1.69.5 0 1-.46 1.46-.12.34 1.18-.56 1.86-.73 2.81l-.11-.17c-.45-.05-.84-.17-1.18.17-.11 1.51-1.23-.45-1.79.67.11 1.51-1.35-.23-1.74.9.28 1.34-1.07.33-1.46 1.12-.5.62.45 1.18.17 1.74a6.078 6.078 0 012.13 3c-1.51-.34-3.36-.17-4.77-.68.06.9.73 1.63.68 2.47-2.64.67-4.32 3.31-4.94 5.78-.39 1.35-1.63 2.41-1.57 3.87.56.05 1-.73 1.51-.51-.45 2-1.68 3.7-1.85 5.84.56.39 1.29-.85 2-.85-.28 2.19 0 4.32-.67 6.34.5 1 1.23-.78 1.91-.67.08.765.08 1.535 0 2.3-4.77.22-9 1.79-13.63 2.46-1.74.68-1.8 2.76-2.41 4.21-.34 1.29 1.57 1.18 1.23 2.41-7.46.06-14.58-1-21.7-1.68A70.34 70.34 0 00209 57.66v.17a77.56 77.56 0 01-11.73 3.7 178.09 178.09 0 0030.63 2 63.935 63.935 0 0011.44-1.12c.84-.56.23-1.74.62-2.41 11.72 1.51 23.38 5.71 35.84 3.14 1.68 0 .73-2 1.12-2.7 5.72.12 11 2.53 16.82 1.46a3.738 3.738 0 003.93 1.68c2.69-.39 4.15-4.43 7.35-2.91A23.63 23.63 0 00316 64.38l-1.62-1.72c-10.358-1.734-18.018-10.797-18-21.3v.03z" fill="#fff" fill-rule="nonzero"/><path d="M262 56.7v-.61l-3.06-.51v.73h.29v2.7c-.23.45-.76.45-1.29.45-1.16 0-.73-4.15-.73-4.15l-2.75-.31v.66c.17.049.337.109.5.18.11 1.4-.33 3 1 3.92a3.613 3.613 0 003.44.27c.14.12.267.254.38.4l2.12.29v-.69l-.41-.1v-3.25l.49.05M252.12 58.08a5.564 5.564 0 01-1.65 0v-1.43c.238.032.464.121.66.26.24.27.43.64.91.47-.07 0 0-1.58 0-1.61 0-.03-.6-.08-.66.21a1.827 1.827 0 01-1 0v-1.22s1.64 0 2.14.67c.162.29.277.604.34.93h.78l-.23-1.72-5.65-1v.63l.6.19v3.26l-.63-.1v.68l5.48 1 .61-1.68-.73-.28a1.7 1.7 0 01-1 .7M279.86 52.86v2h.37c.168-.297.401-.553.68-.75a2.66 2.66 0 01.95 0v3.3h-.68v.56l3.19.56V58l-.57-.34v-3.31s.61.09.78.3c.245.345.472.702.68 1.07h.53v-1.88l-5.9-1M277.79 56.48a2.458 2.458 0 01-1.85.06v-1.11s1-.19 1 .3h.48v-1.41H277a.944.944 0 01-1.11.5V53.5a1.71 1.71 0 011.6 0c.339.266.61.609.79 1h.55l-.34-1.74H273v.74l.62.11v3.14l-.56.23v.52h5.42l.44-1.41-.73-.1c-.121.17-.27.319-.44.44M243.43 53.4l.65.33v3.21c-.17.11-.65 0-.65 0l-.08.59s3.41.67 3.41.63v-.63l-.53-.16V54h.62v-.5l-3.4-.65v.59M287.49 47l-.39-.79-8.41-1.52.34.51a62.924 62.924 0 008.46 1.8M287.6 48.74l.51-.67c-3.81-.62-7.63-1.29-11.33-2.14l.34.45a64.91 64.91 0 0010.48 2.36M286.87 45.21c-.05-.28.06-.73-.27-.84-2.08-.29-4.33-.51-6.23-.79l.28.34a39.255 39.255 0 006.22 1.29M324.21 22.33a27.418 27.418 0 01-13.17 0v-1.2c3.65-1.52 9.47-1.48 13.16-.19v1.36m-14.36-2.4l-.36.13c1 .89 0 2.35 1.18 3.14a26.158 26.158 0 0013.63-.06c1.51-.62.06-2.44 1.19-3.34a23.143 23.143 0 00-15.64.13z" fill="#fff" fill-rule="nonzero"/><path d="M312.27 11.71c-.74.43-.7.75-.74 1-.04.25.48 1 .48 1s-.77-.21-1 0c-.57.5-.38.91-.33 1.51 0 .35.27.51.5.73.33-.32.49-.41 1.24-.44a1.514 1.514 0 01-1 1.91c-1 .32-1.46-.2-1.81-.91a1.634 1.634 0 011-.36l-.94-2-1.07.89-.35-.58-.13-.64a15.658 15.658 0 014.17-2.21m10.49 0c-1.24 0-1.37 1-1.17 1.75-.28-.17-.88-.58-1.34-.22-.64.49-.47 1.42-.25 2a1.23 1.23 0 011.33-.16v.013a1.517 1.517 0 01-1.61 1.507 1.226 1.226 0 01-1.33-1.49c.342-.03.687.028 1 .17a4.26 4.26 0 010-2.4h-1l.26-1.26h-2.59l.23 1.29h-1c.422.699.507 1.552.23 2.32.337.009.674-.032 1-.12a1.407 1.407 0 01-1.371 1.683c-.768 0-1.4-.632-1.4-1.4l.001-.053a1.121 1.121 0 011.05 0 .888.888 0 00.33-.71c-.09-.57-.07-1.13-.65-1.34a1.43 1.43 0 00-1 .24 3.217 3.217 0 00-.07-1.14 1.322 1.322 0 00-1-.68c2.88-.9 7.19-1.19 10.33.1l.02-.1zm3.82 2l-.33 1.13a8.664 8.664 0 01-.85-.74l-1 1.91c.31.06.77.08 1 .42a1.567 1.567 0 01-1.94.9c-1-.4-.84-1.13-.68-1.94.58 0 .81.13 1 .42.3-.29.94-.87.65-1.65-.15-.4-.93-.5-1.27-.39a1.29 1.29 0 00-.28-2 14.422 14.422 0 013.68 2.02l.02-.08zm-20.3.48l-.23.25a12.654 12.654 0 013.09 4.71c5.05-1.85 11.84-2 16.77-.11a14.255 14.255 0 011.4-2.92c.455-.657.963-1.276 1.52-1.85l-.31-.24c.226-.189.393-.439.48-.72.06-.67.22-1.34-.23-1.73a2.28 2.28 0 00-1.8-.12 1.717 1.717 0 00-.44-1.23c-.57-.61-1.46-.11-2 .06a1.452 1.452 0 00-.55-1.1 1.691 1.691 0 00-1.74.33 3.316 3.316 0 00-.73-1.06c-.56-.45-1.4-.06-1.79.23l-.35-1.1-.68-1.49-.22-1.46 2 .49V2.3l-2 .51.38-2.81h-3l.39 2.81-2.13-.51v2.75l2.13-.49-.26 1.62-.53 1.41-.27 1.11a1.822 1.822 0 00-1.35-.45c-.67 0-.9.73-1.12 1.17a1.703 1.703 0 00-1.46-.42c-.67.17-.9.9-1.12 1.4l-.39-.28c-.62-.11-1.4-.11-1.68.56-.34.23.22 1.24-.46 1a1.325 1.325 0 00-1.73.5 1.486 1.486 0 00.39 1.99l.02-.08zM312.79 22.38l1.85.27.34-.22c1.8-.22 3.62-.22 5.42 0l.22.3 1.69-.33a16.94 16.94 0 00-9.52 0M261.19 51a43.655 43.655 0 006.11-.39c1.46-.67 1.4-2.8 1.07-4.15-.16.024-.314.082-.45.17-.34 1.07.17 2.58-1 3.2l-5.66.67-.11.5M286.87 50.37c.23-.22.17-.56.28-.79a103.184 103.184 0 01-10.43-2 .583.583 0 00.29.45 62.544 62.544 0 009.86 2.3M361.51 56.94h1.7v-.53h-.44v-2.23l2.85 3.14h.79V53.2h.39v-.63h-1.55v.59h.43v1.26l-2-1.93h-2.74l.06.51h1v3.3h-.41l-.05.58M357.94 56.82c-.66.12-1.05-.56-1.14-1.63-.09-1.07-.6-2.26.63-2.35.92-.07.9 1 1 1.82.15 1 .2 2-.51 2.16m-.17-4.49c-.904 0-1.772.36-2.41 1a2.203 2.203 0 00-.62 2.25 2.76 2.76 0 001.34 1.62c1.05.34 2.189.283 3.2-.16a2.58 2.58 0 001.12-3.26 2.733 2.733 0 00-2.61-1.45h-.02zM371.56 49.7c-.27 0-.56 0-.61.27.22.9-.23 2.3.61 3 2.286.299 4.505.985 6.56 2.03.17.11.74.29.68-.17a14.19 14.19 0 00-6.23-2.58c-1.18-.33-.28-1.9-1-2.57" fill="#fff" fill-rule="nonzero"/><path d="M412.67 60.07c.85-.28 2.25-.45 3-1.4-.05-1.68-.67-3.31-.61-5.05 4.71-.11 9.42-.56 14.07-.95-2.3 1.68-5 2.64-7.62 3.81 2.07 1.35 4.88 2 7.34 2.92a85.669 85.669 0 01-16.15.67m-5.49-.39c-.06-.68-.56-1.63-.11-2a17.77 17.77 0 017.34.5c-.17.73-1.12.51-1.62.84-1.82.26-3.74.55-5.64.66h.03zm-16.6.5c0-1.85 2.57-1 3.14-2.63a3.322 3.322 0 00-.45-2.7c-1.69-1.79-4.15-.22-6.17-.16l-1-.68c8.64-1 16.32-4.71 25.52-4 .92.113 1.753.602 2.3 1.35.011 1.903.198 3.801.56 5.67-8.51-1.61-16.14 1.58-23.93 3.15h.03zm-1.07-5.1a1.69 1.69 0 011.63.23c.78.67 1.17 2.57-.06 3.08-.03 0-1.54-3.29-1.6-3.31h.03zm-3-3.09h.34v.06h-.34v-.06zm1.46 9.37c-1.46.79-3 0-4.55-.11-2-.28-4.21-.62-6.05.28a19.465 19.465 0 01-4.21-2.3c.67-1.29 2.3-1.35 3.7-1.46 2 .62 3.59 2.25 6.06 1.63a1.215 1.215 0 001.34-.68c-.67-1.06-2-1-3-1.34-3.86-.84-7-3.37-11.27-3.2-1.29-1.46-.33-3.7-.5-5.55.28-.39 1.18-.84.73-1.4-.17-.34-.63-.22-.85-.11l-1.84 1.17c.084.556.121 1.118.11 1.68a23.423 23.423 0 00-4.16-.67c-.38-1.17 1.3-.22 1.19-1.29l.33-4.26c-.06-.84-1.4-.62-.73-1.57.4.06 1 .39 1.29 0l2.41-3.93c.053-.403-.146-.8-.5-1l.56-.61c.61 1.06 1.79 0 2.69 0 .9-.61 3.09.12 2.86-1.68v-.22l1-.17c0 .79-.11 1.9-.73 2.35-1.45.53-3.7.13-5.08.81l-1.2 2.11c3.09-.78 6.67-.73 9.71-1.74 3.13 1.24 6.39 2.25 9.36 4-1.12 1.51-.5 3.37-.28 5.16a7.704 7.704 0 01-2.69 5c-1.29-1.24.89-2.13 1-3.37.28-.73.56-2-.17-2.58-1.12.06-.29 1.46-.79 2-.512.845-.96 1.728-1.34 2.64a3.68 3.68 0 01-1.74-1.46c-.34-.73 1-1.57-.06-2.08-1.07.85-2 2.08-3.3 2.53-.17.17-.29.39-.17.56.78.9 1.74-.39 2.52.62 2.91 2.24 5.66 4.93 8.92 6.39.99 1.38-.07 2.73-.57 3.85zm-18.29-4.82c0-.56.62-.68 1-.79 1.85-.28 3.14.73 4.66 1.24a6.938 6.938 0 00-3.14 1.45 4.073 4.073 0 01-2.52-1.9zm-1.46 4.88c.39-.28 1.07-.51 1.3-1.07l-.06-1.35a2.923 2.923 0 002 .9c0 .62.73 1.12 1.12 1.35l-4.36.17zm-6.84-.51l-.22-1.79c2.404-.224 4.827.14 7.06 1.06l-.05.23a18.246 18.246 0 01-6.79.5zm-17.78-1.51a19.268 19.268 0 013.14-4.09c.166.14.32.294.46.46V58h-.42v.55h1.68v-.49L348 58v-1.35l1.68 1.79 1.63-2.44.24 1.55c-.168.063-.343.11-.52.14a1.81 1.81 0 000 .64l3.06-.53-.09-.8c-.174.05-.351.087-.53.11l-.44-3 .54-.14-.1-.81-2 .34-1.16 2.5-2.06-2.19h-.52l.33-.84c6.12-.67 12.57-2.8 18.9-1 .468.193.842.564 1.04 1.03.62 1.38-.32 3.56.24 5.07.098.268.136.555.11.84-8.35-2.99-16.25 1.95-24.72.49zm-1.29-1.52A5.082 5.082 0 00340 55a4.355 4.355 0 00-3.47.11c1.85-2.58 3.26-7.52 7.57-6.34a3.173 3.173 0 012 2.41c.62 3-3.1 4.24-3.76 6.7zm-1.63 2.81a2.522 2.522 0 01-2.46.84 2.349 2.349 0 01-1.4-1.46 1.142 1.142 0 01.56-1.35c.33 0 .73.06.78.4.05.34-.56.84.06 1.06.39.06.73-.39.78-.73a1.545 1.545 0 00-.95-1.68 1.721 1.721 0 00-1.69.39c-.55.4-.5 1.07-.55 1.63a4.339 4.339 0 00-2.84-1.07c1.85-1.62 3.7-3.59 6.34-3a3.193 3.193 0 011.95 2.36 3.9 3.9 0 01-.58 2.61zm-1.48-27.84a3.002 3.002 0 011-2.56 2.165 2.165 0 012.36-.5l5.49 5.66A4.107 4.107 0 00343.8 37c-2 2.47.4 6.45-1.73 8.92l-2 1.91a22.486 22.486 0 00-.84-14.98zm-.7-3.29c-1.63-.56-2.15-1.83-3.44-3.44a4.194 4.194 0 003.16-2.39c0-.23.17-.34.17-.56 1.46 1.46 4.48 3.25 2.52 5.6a2.453 2.453 0 01-2.41.79zm23.33.34a3.464 3.464 0 001.4-3.42c.12-1.12-1.12-1.85-1.74-2.47-3.92-1.58-7.63 1.4-11.66.73a2.614 2.614 0 01-1.52-2.25v-.16a2.802 2.802 0 002.36 1.45c4.37-.28 10.54-3.87 13.74.9 1.277 2.397.379 5.419-2 6.73-5.27 2.58-10.32-3.53-15.25.34l-.68-.56c4.36-4.77 10.19 1.29 15.35-1.29zm-.62-1.35c.06.51-.56 1-1 1.07-2.42.33-4.72-.39-7-.9 2.4-.5 4.81-1.51 7.34-1 .342.153.588.463.66.83zm-15.42-2.8v-.17c4.6 3.53 9.65-.56 14.58-.11a2.266 2.266 0 011.68 2.75 2.323 2.323 0 00-1.62-1.52c-4.94-.62-11.05 4.37-14.64-.95zm3.53 11a3.832 3.832 0 011.29 1.85 2.423 2.423 0 01-.84 2.18 1.884 1.884 0 01-2 .45 1.82 1.82 0 01-1-1.12.902.902 0 01.56-1c1.06-.28.17 1.68 1.29.9a1.433 1.433 0 00-.17-1.4 1.532 1.532 0 00-1.68-.34c-1.79 1.23-.17 3.42-.56 5.27a5.079 5.079 0 01-1.8 3.43 3.191 3.191 0 00-2.07 0c1.85-2 1.68-5.11 1.57-7.8a3.855 3.855 0 011.46-2.41 4.361 4.361 0 013.95.04v-.05zm13.07 7.51l1.13.06-.24 2.86-1.11-.11.22-2.81zm1.58-4.38c.56-.67.79-1.51 1.35-2.19l.9.56c-.383.87-.855 1.698-1.41 2.47-.29-.22-1.24-.33-.84-.84zm7.74-6c.34.11.22.67.34 1-.881.363-1.805.609-2.75.73a2.007 2.007 0 01-.17-1.13l2.58-.6zm8.36 1.74a.69.69 0 001.07-.39c-.23-1.69 1.28-3 1.62-4.66a3.275 3.275 0 003.217-3.26c0-.4-.073-.797-.217-1.17-.16-.17-.45-.45-.62-.12-.16 1-.56 2.2-1.68 2.48-1.73.61-3.7 0-5.44-.28-1.62.39-3.42.33-4.6 1.73a1.424 1.424 0 01-1.68-.11c-.28-.22-.62-.67-.17-.89.56-.4 1.57.05 2-.68a1.264 1.264 0 00-.9-1.34c-1.12-.68-2.8 1.9-2.75-.45l.23-1.57c.537.38 1.215.501 1.85.33.34-.11.67-.5.51-.84-.51-.95-1.18.06-1.85 0 .11-.73 1.06-.78 1.62-1.06a9.226 9.226 0 005.83-2.86c1.46-.45 3.14.72 4.49-.28a5.913 5.913 0 012.69-2.92c.17 1.4.85 3.2-.33 4.37a.743.743 0 001 .23c.4-.23.4-.68.57-1.07 3.93 2.36 5.33 6.68 4.6 11.11a23.23 23.23 0 01-2.24 6c-.06 0-.4-.62-.79-.56.234-.503.143-1.1-.23-1.51-.84 0-1.11 1.23-2.07.83-.267.225-.43.551-.45.9.17.22.45.11.61.39.06.51-.38.79-.78.9a1.294 1.294 0 01-1.4-.9c-.06-.28-.17-.78.06-.95.38.12 1.06.9 1.17 0 0-.56 1.07-1.17.17-1.57l-.67-.17c.11-.34.56-.5.5-1a4.5 4.5 0 00-1.9-.73c-.28.23-.17.56-.17.89-.4.17-.56-.44-1-.33a11.711 11.711 0 00-.67 1.85l1 .34a1.682 1.682 0 01-1.68.79c-.34-.23-.84-.4-1-.85a.532.532 0 01.47-.62h.01zM382.78 15a8.122 8.122 0 013.19-2.4c0 2.07-1.68 3.58-3.31 4.65-.55-.59-.11-1.54.12-2.25zm7.91-1.29c0 2.14-2.3 3.31-2.92 5.22-.45-.11-.5-.67-.67-1-.28-2.22 2.02-3.29 3.59-4.19v-.03zm3.93 2.7c-.46 2.52-3.37 2.69-4.61 4.6-.5 0-.45-.56-.61-.84.45-2.5 3.31-2.89 5.22-3.73v-.03zm3.58 4.26c-1.79 1.63-4.43 1.85-6.67 2.36-.34-.17-.17-.68-.11-1 1.68-1.61 4.37-1.16 6.78-1.33v-.03zm1.4 4.33c-1.74 1.23-4.54.95-6.73.73-.44-.17-.33-.68 0-1 2.13-1.28 4.6-.05 6.73.27zm.29 4.09c-2.08.56-5.16.84-6.68-.84-.06-.39.34-.56.61-.73 2.104.153 4.162.692 6.07 1.59v-.02zM399 33a5.4 5.4 0 01-5.89-1.74.573.573 0 01.5-.62c2.07.21 3.59 1.67 5.39 2.36zm-6.4 1.68c-.11-.17 0-.45 0-.67.35-.24.807-.263 1.18-.06l3.59 2.7a5.394 5.394 0 01-4.78-1.99l.01.02zm-1.06 3c-.11-.39-.34-.89-.06-1.34.243-.06.497-.06.74 0l2.78 3.54a5.31 5.31 0 01-3.47-2.19l.01-.01zM390 40.5c-.16-.4-.05-1 .34-1 1.29.39 1.74 2 2.8 2.8a3.385 3.385 0 01-3.14-1.8zm-2.23-.5c-.23-.11-.5-.11-.67-.39a.721.721 0 01.39-.79c.28-.05.62 0 .62.34s-.17.61-.34.84zm7.46 8.81a3.202 3.202 0 012.41.62 80.5 80.5 0 01-10.64 2.4c2.73-.62 5.43-2.13 8.23-3.03v.01zm31.13 7.63a65.684 65.684 0 0010.1-6.62 138.97 138.97 0 01-21.21 1.68c-.56-.17-.11-1.06-.45-1.46-2-2.86-6.39-2-9.64-1.9-2.25-.23-4.94 2.35-6.51-.4-1-.89-2.46-.72-3.81-.84-2.41.56-4.6 2-7 2.41.73-1.62.11-3.53 0-5.27.05-.39.11-.84.5-1a4.517 4.517 0 004.26 2.36c.06-.62-.89-1.07-1-1.69 1.52.68 3.6.06 5.05.85-.05-1.24-1.68-2.3-2.35-3.15a23.182 23.182 0 013.58.23 8.922 8.922 0 00-2.46-3.7L398 38c.79-.11 1.74 0 2.47-.11a6.243 6.243 0 00-3.14-3.08l2.46-.34c.73-.33 1.86.05 2.53-.33a11.007 11.007 0 00-4.23-3.14l3.7-1c.51 0 1.24.11 1.52-.11a8.544 8.544 0 00-4.21-2.69V27c.84-.16 1.46-.89 2.19-1.34.5-.33 1.29-.28 1.62-.78-1.34-1.24-3.19-1.46-4.93-1.91v-.17c1.12-.67 2-1.74 3.14-2.41v-.19c-1.74-1.13-4.09-1.13-6.23-1.07a4.869 4.869 0 001.11-2.19c.28-.73.9-1.34 1.18-2a9.583 9.583 0 00-5.33.84l.95-3.81-.17-.11a10.074 10.074 0 00-5.1 2c.016-1.147.226-2.283.62-3.36a10.204 10.204 0 00-4.15 1.4c-1.69.89-3.48 2.4-3.26 4.48-.11.11-.45.06-.39.34.52.509.854 1.179.95 1.9a2.39 2.39 0 01-1-1.45 1.627 1.627 0 00-2-.9c.441.481.718 1.091.79 1.74-1-.51-1-1.63-1.74-2.3a1.363 1.363 0 00-1.4-.11l.73 1.23-.12.17c-1.06-.51-.89-1.69-1.85-2.25a1.272 1.272 0 00-1.4 0c.28.51.84 1 .79 1.57-1.29-.5-1.68-3.25-3.48-2.3.39.4.9.79.9 1.29-1.13-.28-1.18-1.51-2-2.07-.45-.17-1-.39-1.35-.11.35.266.557.68.56 1.12-.78-.11-.73-1-1.34-1.35a1.424 1.424 0 00-1.68-.61c.16.34.56.72.5 1.06-.73-.34-.67-1.45-1.63-1.63a.703.703 0 00-.56.85c.217.388.549.699.95.89 1.68-.27 2.47 1.63 4.21 1.24a3.354 3.354 0 002.75 1.12 3.392 3.392 0 002.64.95c.78 1.35 2.58.12 3.36 1.57.62.56 2-.11 2.19.84h-.17c-2.07-1.06-3.59.68-5.16 1.63-1.91.84-4.38.73-5.83 2.41-.29 1.74-1.13 3.81-.12 5.5.23.17.74.23.51.67l1.91 2.08c.61.5 1.57.33 2.35.28 2-1.46 4.83-2.24 7.18-1-.17.78-.39 1.74-1.34 2-.34.22-.18 1-.85.73-.62 0-.84.67-.84 1.17l.62.23a.543.543 0 010 .78c-.35.379-.894.513-1.38.34a1.155 1.155 0 01-.72-1.4c.27-.06.44.39.72.23-.05-.67.34-1.13.34-1.68l-.79-.12c0-.39.51-.72.4-1.12a3.999 3.999 0 00-2-.06l-.22 1.3-1.57.16c-.29-.22-.17-.72-.62-.84l-3.76.79c-.67 0-1.56.56-1.12 1.4-.73.62-1.57 2.69-2.75 1.4-.95 1.07-1.63 2.52-2.52 3.7a.998.998 0 00.45 1.52 3.572 3.572 0 01-.56 1.68 1.003 1.003 0 00-1.12.39l-.31 4.65c.17.5.73.39 1.06.62-.05.22.12.56-.1.72-4.88-.11-9.15 1.41-13.8 1.51a6.39 6.39 0 00-1.86-3 7.882 7.882 0 002-4.77 4.235 4.235 0 003.87-1.68c3.19.11 6.72.45 9.86-.28l-.17-.17c-.55-.5.12-1 .17-1.4-3.134.28-6.286.28-9.42 0 .4-2.92-2.46-4.49-4.09-6.39a5.308 5.308 0 011.12-.79c4-.34 7.24 2 11.33 1.46 2.41-.34 5.16-2 5.77-4.54.51-2.08.45-4.6-1-6.23-2.63-3-7.24-2.75-10.77-1.85-1.68.22-4.15 1.51-5.44-.34a3.502 3.502 0 01-.06-2.8c-.78-.12-1.23.61-1.74 1-1.23 1.62-.89 4-.27 5.72A4.143 4.143 0 01345 22h-.12c-.67 1.23-.28 2.92.17 4.15a6.208 6.208 0 003.36 2.75 9.87 9.87 0 00-2.63 1.4c-.44-.28-.73-1-1.18-1.4-.39-.62-1.74-.39-1.4-1.18.84-2.58-1.63-4.09-3.26-5.66-.29-2.18-1.6-5-4.31-5.73-2.12-.55-4.06-.3-5.44 1.41a4.394 4.394 0 00-1 3.59c-1.12-.4-2.13-1.24-3.31-1.35a2.133 2.133 0 00-.07 1.58 17.873 17.873 0 014.55 2.44h3a2.269 2.269 0 001.6-.79 1.863 1.863 0 00.34-2.07 1.525 1.525 0 00-1.63-1.07c-.86 0-1 .63-1 1.24s.26.61.56.56c.3-.05.14-.48.34-.73s.26-.37.45-.28c.3.156.509.446.56.78.16.68-.33 1.21-1 1.52a1.795 1.795 0 01-2.07-.51 2.335 2.335 0 01-.39-2.63 2.813 2.813 0 011.73-1.91 3.244 3.244 0 013.43.56 3.644 3.644 0 011.23 4.66 3.277 3.277 0 01-3.2 1.9v2.52a20.187 20.187 0 015.07 13.57c.122 10.695-7.792 19.921-18.38 21.43l-1.56 1.69a23.376 23.376 0 0011.71-4c3.7-1.46 5 4 8.75 2.92a5.003 5.003 0 002.69-2.19c2.163.397 4.368.511 6.56.34 3.87-.17 7.4-1.51 11.16-1.4 0 .78-.12 1.74.45 2.3a44.294 44.294 0 0014.92.67c1.17.34 2.63.73 3.76-.06 2.57-.45 4.93.45 7.46.51a2.625 2.625 0 002.68-1.12 156.395 156.395 0 0116.1-3.65c.73.06.28 1.24.51 1.8.61 1 1.9.89 2.91 1.17 9.82.9 20 0 29.45-1.57a111.506 111.506 0 01-12.19-3.73v.01z" fill="#fff" fill-rule="nonzero"/><path d="M348.06 46.89l7.07-1.46c.62-.33 1.74-.11 2-.89-2.8.5-5.55 1.12-8.41 1.39-.5.06-.39.63-.62 1M348.06 48.63c3.26-.62 6.45-1.18 9.54-2.07.39-.18 1-.18.95-.79-3.53 1.12-7.46 1.35-11 2.19l.55.67M358.5 48l.22-.39c-3.31.73-6.9 1.23-10.27 1.85l.29.68A79.916 79.916 0 00358.5 48M348.79 44.37l-.05.67a43.377 43.377 0 006.06-1.29l.22-.39-6.23 1M409.87 51.41l.72.1v3.39l-.5.07v.46l2.9.32v-.51l-.63-.19-.1-3.4c.204.075.398.172.58.29.143.153.21.363.18.57l.45.16v-1.16a10.671 10.671 0 00-4.27-.69v1.62l.43-.06.25-1M409.09 54.76l-.46-.02-.37-3.23.6-.07-.17-.63-3.03.35.06.56.45-.06.45 3.31-.45.16.05.57 2.92-.36-.05-.58M396.41 55.19c.06.07-.37-1.46-.37-1.46a.831.831 0 011.24.45c.25.67-.47.94-.87 1m2.48-1.6c-.2-1-1.48-.93-2.72-.69.05 0-2.4.72-2.4.72l.12.46.34-.1.83 3.23-.29.41.18.43 2.36-.56-.27-.64h-.19l-.24-1.16s.64 0 .83.14c.33.449.605.936.82 1.45l1.8-.52-1.45-1.66s.58-.02.28-1.5v-.01zM403.2 55.86c-.72.23-.91-.37-1.25-1.49-.34-1.12-.72-2 .1-2.28.82-.28 1.19.91 1.42 1.75.32 1.16.47 1.79-.27 2m.72-4.2a3.781 3.781 0 00-3 .39c-1 .5-1.13 1.57-1 2.64.19.708.68 1.3 1.34 1.62a4 4 0 002.92-.22 2.552 2.552 0 00-.23-4.43h-.03zM328.27 54.41l-.45-.12c.22-.28.84-.33.67-.83-1.07-.91-2.41-.51-3.76-.62l-.22-.17c.56-.62 1.57-.28 2.3-.28.33 0 .72-.29.5-.62-.95.22-2.24.11-3.19.62-.23.22-.12.5.05.73 1.18.16 2.8-.4 3.7.5l-.28.11c-1.46-.61-3.14.39-4.54-.33l.22-.45a3.142 3.142 0 00-2.13-.51c-.28.34.22.84-.11 1.24-.68 0-.34-.68-.51-1l-.78-.06c-.45.23-.05.62-.17.9.68.28.95 1.06 1.46 1.51-.22.29-.68.84-.95.29-.34.11-.79.22-.9.55.67 1.35 1.91.06 2.75-.11l.23.11c.5-.73 1.39-.73 2-.89.45.56-.51.5-.73.84-.22.34-.73-.28-.89.22 0 .23-.23.4 0 .62.89.34 1.57-.67 2.52-.62.67-.05 0-.67.5-1 .5-.33 1-.56 1.29 0l-.39.39c-.28 0-.34-.5-.67-.34a.44.44 0 00-.17.4c-.06.61.62.5.9.67a6.17 6.17 0 001.74-1.79M319.91 28.27H330v11.22h-10.09V28.27zm-.84 12.12h12v-13h-12v13z" fill="#fff" fill-rule="nonzero"/><path d="M321.25 51.66c.45-.06.91-.56 1.24-.39.33.17.17-.23.33-.29 1.07-.22 2-.95 3.26-.67-.06.12 0 .4-.22.4-.51.5-1.74 0-1.8.95.23.06.39.39.73.28.44-.56 1.17-.39 1.85-.45 1.18.34.22-1 1.18-1.06.61.1 1.51-.28 2 .33a.341.341 0 01-.17.34c-.17.17-.39 0-.5-.12a.36.36 0 00-.57.17c.06.68.68.57 1.07.79a2.89 2.89 0 001.14-1.94c-.45-.11-.9 0-1.23-.33.33 0 .84-.28.72-.73-1.12-1.29-3.25-.39-4.88-.56l-.22-.17c.73-.73 2.3 0 2.69-1-.05-.16-.28-.16-.39-.16-.84.67-2.35.05-2.86 1.12 1.18 1.34 3-.06 4.6.39.22-.05.62.28.45.45-1.91-.17-4.21.39-6.17-.17.117-.174.211-.362.28-.56a5.32 5.32 0 00-2.42-.56c0 .5.17.89-.11 1.29-.16.22-.39-.06-.5-.17-.23-.28 0-.45.06-.67-.12-.56-.62-.11-1-.34-.33.11-.16.56-.33.84 1 .17.78 1.46 1.62 1.69a2.06 2.06 0 01-.67.55c-.22-.11-.17-.39-.39-.33-.34.22-1 .16-.9.73.45 1.23 1.24 0 2.07.28" fill="#fff" fill-rule="nonzero"/><path d="M319.57 47.34c.28.17.56-.06.85-.11.78.11 1.4-.79 2.07-.56a6.438 6.438 0 014-1l-.28.56c-.62.22-1.68-.11-1.9.56 0 .56.61.34.94.5.63-.72 1.8 0 2.42-.61-.51-.51.39-.62.56-1 .67.4 1.74-.5 2.07.51-.28.62-.72-.45-1.12.11-.11.68.57.73 1 1a2.092 2.092 0 001.12-2c-.39-.11-.84 0-1.12-.33.23-.34.9-.17.79-.73-1.4-1.41-3.65-.12-5.44-.68 0-.11 0-.17.05-.22.79-.62 2.3.5 2.59-.73-.12-.23-.34-.11-.51-.11-.73.73-2.42-.17-2.69 1.12.11.34.5.39.78.44 1.52.12 3.37-.72 4.6.23a22.165 22.165 0 01-6.95-.11l.11-.45a2.502 2.502 0 00-2.25-.5c-.05.28.17.5.11.78-.06.28-.05.56-.44.51-.39-.05-.28-.62-.23-1-.11-.4-.56-.12-.78-.28-.5 0-.34.61-.5 1 .67.39 1 1.18 1.62 1.73-.61.91-1.34-.38-1.85.68-.11.33.34.45.39.73" fill="#fff" fill-rule="nonzero"/><path d="M318.23 61.81V42.29h13.91c.26 6.43.05 12-5.61 14.53-2.8 1.4-6.11 2.46-8.3 5m0-35.22h13.68v14.63h-13.68V26.6zm-1.07 14.64h-13.57V26.59h13.57s.05 9.81 0 14.64v.01zm0 20.52c-3.14-3.42-7.08-3.47-10.82-6.78-3.17-2.8-2.75-8.56-2.75-12.68h13.57v19.46zm-15.31-11.5c-3.08-4.88-3-12.57 0-17.5v17.5zm32-17.62a17.659 17.659 0 012.27 8.88 18.058 18.058 0 01-2.27 8.87V32.64zm-5.13 25a20.144 20.144 0 007.28-9.12c1.77-4.73 1.6-8.53.32-13.14a16.723 16.723 0 00-2.61-5.12v-5.58h-6.22l-2.11-1.15-1.23.38 1.36.77h-15.36l1.52-.67-1.37-.38c-.74.405-1.509.756-2.3 1.05h-6.28v5.89c-2.91 4.43-4.33 11.28-2.39 16.71 1.94 5.43 4.06 7.39 7.7 10.36 4 1.85 8 3.48 10.88 7.51 1.97-3.88 6.09-5.31 10.84-7.51h-.03z" fill="#fff" fill-rule="nonzero"/><path d="M304.88 31.86a4.252 4.252 0 002.52-.95c.22.5.39-.06.68-.11 1.17-.18 2.18-1.07 3.42-.62l-.06.05c-.17.79-1.34.62-2 .73-.22.68.34.84.84.84.73-.56 2-.05 2.58-.67-.5-.45.34-.45.45-.9.68.39 1.74-.5 2.08.51l-.17.11a1.573 1.573 0 01-.68-.23.28.28 0 00-.16.34c-.23.68.56.73.95.84.84-.33.95-1.23 1.07-2-.4-.23-.79.11-1.07-.28.28-.12.9-.28.67-.79-1-1.06-3-.56-4.31-.5-.29.05-.68.05-.68-.34.23-.34.73-.12 1.13-.17.55.05 1.28-.05 1.06-.68l-.34-.1c-.61.67-1.68.16-2.35.67-.06.28-.12.67.17.84 1.46.33 3.19-.51 4.71.17a.218.218 0 01-.06.34c-2.13-.18-4.65.44-6.73-.23l.17-.45c-.67-.34-1.52-.95-2.41-.51-.06.4.45 1.07-.22 1.3-.85-.29 0-.79-.4-1.24-.23.06-.73-.11-1 .11-.62 1.18 1 1.58 1.41 2.47l-.17.17c-.23.17-.57.34-.62-.06-.45-.16-.62.34-.95.4-.34.45.33.78.5.95M309.7 49.3L314 52l-.17 1.07-5.05-3.14-.39-.78c.28-.56.95-.12 1.34.16m.28-2c1.4.9 2.86 1.69 4.15 2.69l-.11 1a22.833 22.833 0 01-4.43-2.8l.39-.89zm1.07-1.4l3.25 1.91-.11 1a28.088 28.088 0 01-3.7-2.18l.56-.73zm3.42-.61l-.11 1.45a8.357 8.357 0 01-2.39-1.48l2.5.03zm-.84 10c-1.57-.85-3.76-2-4.27-3.93 1.52.84 3 1.79 4.38 2.74-.2.35-.03.89-.14 1.2l.03-.01zm-1.13 1.06c1.13.62 2 1.79 3.2 2.07.62-4.65.45-15 .45-15h-6.56c-1.46.12-.56 2-1.57 2.7-.23.16-.79.33-1-.12 0-.457.239-.883.63-1.12.16-.45.39-1.12 0-1.51A2.004 2.004 0 00306 43a1.762 1.762 0 00-.78 1 1.643 1.643 0 00.56 1.85 1.999 1.999 0 01-.73 1.24c-.209.423-.091.939.28 1.23.67 3.62 3.67 7.26 7.17 8.05l.03-.01zM329.11 29.79a.784.784 0 00-.95-.51 3.676 3.676 0 00-.68 4c0 .85 2 1.68.79 2.25a7.216 7.216 0 01-2.14-1.74 3.321 3.321 0 01.34-2.53c.28-.67-.11-1.29.39-1.85-.33-.11-.5-.39-.78-.56a2.372 2.372 0 00-2.13.62c-.12.56.44.45.78.5.06.45-.78.06-.61.62l.61.28a2.299 2.299 0 01-1.29.73 2.4 2.4 0 01-1.62-1.4l.34-.28c0-.67-.74-.45-1.07-.67-.06.39-.67.44-.62.95.84.73 1.4 2 2.35 2.58a4.828 4.828 0 01-.56.39c-.27.17-.84.17-.84-.34-.73-.27-.39.62-.95.68.17.44-.12.62 0 1.06l.51.06c.79-.84 1.79-.5 2.75-1.07l.61 1.07-.84.22c-.67.51.62 1 0 1.46-.39.39-.84-.11-.95-.44-.67-.23-.34.66-.9.66-.39.51.46.45.23 1a.843.843 0 00.5.28c.39-.78 1.35-.56 2-.89.4-.06.95-.68.51-1 .33.05.61-.23.84.05-.34 1.24 1.4.9 1.34 1.85-.17 0-.22-.33-.5-.22-.39.51-.51 1 0 1.46a2.802 2.802 0 001.63-1.57c.05-.67-.57-.79-1-1.12.028-.285.085-.567.17-.84.34.22.62.56 1.06.5a.792.792 0 00.57-1.12 4.187 4.187 0 01-1.35-4.32c.11-.28.23-.9.73-.73.62.62-.33 1.12-.28 1.74 0 .45.45.62.73.9.22.06.67.22.73-.17-.79-.56-.67-1.63-.56-2.52" fill="#fff" fill-rule="nonzero"/><path d="M314.52 35.11c-.22 0-.16.29-.16.45.11.51.67.45 1 .62a2.68 2.68 0 001.12-2c-.34-.16-.9.12-1.12-.28.28 0 .67-.33.67-.67-1.12-1.57-3.31-.34-5-.78.45-.84 1.79-.06 2.41-.68.17-.16 0-.44-.17-.5-.84.45-1.91.28-2.69.67a.581.581 0 00.22 1c1.57.34 3.42-.66 4.65.34l-.16.23c-2.13-.57-4.38.34-6.39-.17-.62-.11.11-.4 0-.73h-.34c-.5-.67-1.46-.33-2-.51-.44.4.34.62 0 1.07a.342.342 0 01-.338.306.341.341 0 01-.272-.136c-.39-.28.05-.56 0-.9-.23-.45-.57.06-.9-.22-.28.11-.34.44-.4.67-.06.23.34.45.57.56.16.62 1 1 .83 1.51-.16.12-.56.51-.72 0-.45-.16-.62.4-.95.51-.07.45.22.56.5.84a8.69 8.69 0 002.69-.78c.28.22.28-.17.51-.28 1.17-.23 2.24-.9 3.53-.74-.17.12.06.51-.28.51-.51.06-.9.56-1.4.28-.34-.05-.51.28-.45.57-.06.5.5.27.78.38.62-.61 1.86-.44 2.69-.38-.61.61-1.73.1-2.46.66a.613.613 0 00.22.79c1.52.39 3.2-.45 4.71.22.12.06.05.28-.05.34-2.3-.5-4.55.39-6.79-.28.11-.11.28-.34.11-.56h-.28c-.45-.73-1.4-.28-2-.39-.11.51.34.95-.11 1.29-.72-.12-.33-.73-.56-1.12-.28.05-.62-.23-1 .05a2.53 2.53 0 000 .95c.67.23.84 1.07 1.51 1.41l-.28.33c-.22.28-.62.06-.78-.16-.34.22-1 .33-.79.89.21.56.9.28 1.35.28.78.06 1.34-.73 2-.5a8.712 8.712 0 013.7-1.18c.45 0 .06.39.06.62-.63.124-1.268.198-1.91.22 0 .23-.34.51 0 .68.78.39 1.74-.29 2.69-.06 1.24.11.06-1 1.18-1.29.67.22 1.4-.17 2 .34 0 .78-.56 0-.9.16-.16.06-.11.23-.11.4-.11.61.62.45 1 .67a2.894 2.894 0 001.06-2c-.39.06-.78.11-1.06-.22.28-.12.89-.34.67-.85-1.23-1.12-3.2-.38-4.71-.5l-.28-.22.22-.17c.62-.4 1.91.28 2.13-.68 0-.33-.45-.16-.56-.16 0-.23.06-.45 0-.56.45-1.12 1.68-.4 2.52-.4.11.17.28.34.06.51-.39.17-.51-.28-.85-.23M388.33 34.66c0 .23.28.28.45.34 1.35-1.74 1.57-4 1.63-6.39-.23-1.68-.51-3.54-1.91-4.54-.23 0-.34.22-.34.44 2.08 2.92 1.29 7.13.17 10.15M380.37 22.21l.79.56c-.23.34-.68.34-1.07.4 0-.23.28-.56.28-1m-1.91.56c.11-.28.17-.61.51-.78l.11.9-.62-.12zm.51-1.68c-1 0-1.12 1-1.68 1.46a2.1 2.1 0 001.68 1 3.384 3.384 0 003.42-.79c-1.13-.51-1.97-1.85-3.39-1.63l-.03-.04zM34.29 123.29v-2c-4.64 0-7.54-1.07-7.54-6v-33c9.18 0 11.36 1.65 12.21 8.89h2.16V78.11H0v13.18h2.15c.86-7.24 3-8.89 12.21-8.89v33c0 4.89-2.9 6-7.54 6v2h27.47M74.08 101.61v13.76c0 4.38-2.36 5.84-6.17 6v2H92v-2c-4.37 0-6.09-1.08-6.09-6V86c0-4.89 1.72-6 6.09-6v-2H67.91v2c3.81.13 6.17 1.59 6.17 6v12H58.56V86c0-4.38 2.37-5.84 6.18-6v-2H42.5v2c3 .63 4.23 1.08 4.23 6v29.34c0 4.89-1.72 6-6.09 6v2h24.1v-2c-3.81-.13-6.18-1.59-6.18-6v-13.73h15.52M132.11 123.29v-13.41h-1.59c-2.54 9.65-5.58 10.23-9.77 10.23h-5.58c-2.67 0-3.18-.89-3.18-3.3v-15.27c6.75.11 11.46-.75 11.89 5.67h1.7v-14.4h-1.7c-.43 5.63-5.41 5.08-11.89 5.08v-16.6h7.11c7.23 0 10.34 2.79 11 9.64h1.4V78.11H94.23v2c4.38 0 6.09 1.08 6.09 6v29.34c0 4.89-1.71 6-6.09 6v2h37.88M155.63 123.54h1.28a2.727 2.727 0 012.5-2.19c2.53 0 4.67 3 14.4 3 6.31 0 14.22-4.69 14.22-15.28 0-15.51-24.81-12.84-24.81-23.29 0-3.87 3.57-5.71 7.55-5.71 5.92 0 10.09 4.51 11.94 10.28h1.37V78.11h-1.94c-.31 1-.53 1.62-1.49 1.62-2.24 0-4.06-2.78-10.56-2.78-7.94 0-16.17 3.42-16.17 13.37 0 16.62 25.13 14.33 25.13 24.74 0 3.38-3.9 6.2-8.56 6.2-6.621-.216-12.271-4.996-13.58-11.49h-1.79l.51 13.77M487 123.29v-1.83c-3.75 0-5.23-2.36-5.23-7.24v-27.3c0-4.88 1-6.82 4.57-6.82v-2h-21.1v2c3.58 0 4.63 1.94 4.63 6.82v27.3c0 4.88-1.49 7.24-5.29 7.24v1.83H487M517.57 123.29l14-36.29v27.22c0 5.4-1 6.67-6.1 7.24v1.83h23.78v-1.83c-5.7-.57-6.09-2.36-6.09-7.24V87.35c0-6.06 1-6.38 6.09-7.25v-2h-18.52l-11.13 29.43-10.93-29.42h-18.48v2c4.32 0 6 2.36 6 7.25v27.56c0 4.89-.89 5.77-6 6.55v1.83h16.16v-1.83c-5.89-.89-6.1-1.66-6.1-6.55v-26L514 123.29h3.53M590.28 123.29v-13.41h-1.58c-2.55 9.65-5.59 10.23-9.78 10.23h-5.58c-2.67 0-3.18-.89-3.18-3.3v-15.27c6.76.11 11.45-.75 11.89 5.67h1.7v-14.4h-1.7c-.43 5.63-5.41 5.08-11.89 5.08v-16.6h7.11c7.24 0 10.35 2.79 11 9.64h1.4V78.11H552.4v2c4.38 0 6.1 1.08 6.1 6v29.51c0 4.89-1.72 6-6.1 6v1.78h37.88M595.84 123.54h1.28a2.696 2.696 0 012.49-2.16c1.32 0 7.27 3 14.41 3 6.31 0 14.22-4.69 14.22-15.28 0-15.51-24.81-12.84-24.81-23.29 0-3.87 3.57-5.71 7.55-5.71 5.92 0 10.09 4.51 11.93 10.28h1.38V78.11h-1.93c-.32 1-.54 1.62-1.5 1.62-2.24 0-4.06-2.78-10.57-2.78-7.93 0-16.16 3.42-16.16 13.37 0 16.62 25.13 14.33 25.13 24.74 0 3.38-3.89 6.2-8.56 6.2-6.622-.212-12.274-4.994-13.58-11.49h-1.79l.51 13.77M456.33 123.29v-2c-4.65 0-7.55-1.07-7.55-6v-33c9.18 0 11.36 1.65 12.21 8.89h2.16V78.11H422v13.18h2.15c.86-7.24 3-8.89 12.21-8.89v33c0 4.89-2.89 6-7.54 6v2h27.48M236.57 80.1c2.54 0 3.4.64 5.61 3.3v31.93c0 4.88-2.24 6-6.89 6v2h18.23v-2c-5 0-7.24-1.08-7.24-6V90.11h.13L272 123.29h5.34V87.07c0-4.89 1.61-6.63 6.09-7v-2h-15.64v2c4.49.87 5.46 2.08 5.46 7v19h-.13l-20.83-27.96h-32.58v2c4.06.13 6 2 6 6v22.11c0 8.37-2.73 11.54-9.57 11.54-4.31 0-9.51-2-9.51-8.76V86.07c0-4.89 1.71-6 6.09-6v-2H189v2c4.38 0 6.09 1.08 6.09 6v24.05c0 10.79 7.48 14.41 17.77 14.41 11.25 0 17.21-3.94 17.21-14.54V86.07c0-4.89 2.06-6 6.55-6M303.51 81.34c11.87-1.39 16.67 7.94 16.67 18.22 0 14.92-3.94 20.27-12.51 20.27-2.8 0-4.16-1-4.16-4.69v-33.8m-11.77 34c0 4.88-1.71 6-6.08 6v2h22.54c14.21 0 23.86-5.92 23.86-22.53s-9.65-22.65-23.86-22.65h-22.54v2c4.37 0 6.08 1.08 6.08 6v29.18z" fill="#fff" fill-rule="nonzero"/><path d="M353.65 105.45h-11.11L348.1 89l5.55 16.42m22.46 15.89c-2.82 0-4.73-1.42-5.88-4.21l-14.44-40.5-8.23 2.14-12.79 36.54c-1.85 4.76-4.32 5.78-8.17 6v2h18v-2c-3.87 0-6.43-1.21-6.43-2.86a9.76 9.76 0 01.83-3.55l2.31-5.58h13.45l2.94 6.59a9.65 9.65 0 01.69 3v.025a2.351 2.351 0 01-2.6 2.325h-3.49v2h48.4v-2c-4.37 0-6.95-1.08-6.95-6V102l10.69-17c2.68-4.07 4.39-4.49 8.13-4.83v-2h-16.36v2c2.54 0 4.33.7 4.33 2.48a8.78 8.78 0 01-1.34 4l-7.26 10.9-6.42-11c-.83-1.59-1.78-3.31-1.78-4.45 0-1.14 1-2 3.56-2v-2h-24v2c2.47.45 5.35.12 7.48 3.43L382.25 102v13.36c0 4.85-2.79 5.96-6.14 5.98v-.03z" fill="#fff" fill-rule="nonzero"/></svg>