<svg xmlns="http://www.w3.org/2000/svg" width="208" height="228" fill="none"><path fill="#fff" d="M80 68h16v8H80v-8ZM128 68h-16v8h16v-8ZM80 108H64v8h16v-8ZM96 108h16v8H96v-8ZM144 108h-16v8h16v-8ZM64 132h16v8H64v-8ZM112 132H96v8h16v-8ZM128 132h16v8h-16v-8ZM80 156H64v8h16v-8ZM96 156h16v8H96v-8ZM144 156h-16v8h16v-8Z"/><path fill="#fff" fill-rule="evenodd" d="M56 60v24h-8a8 8 0 0 0-8 8v32H20c-6.627 0-12 5.373-12 12v92h192v-92c0-6.627-5.373-12-12-12h-20V92a8 8 0 0 0-8-8h-8V60a8 8 0 0 0-8-8H64a8 8 0 0 0-8 8Zm88 0H64v24h80V60ZM16 204v16h24v-88H20a4 4 0 0 0-4 4v12h8v8h-8v16h8v8h-8v16h8v8h-8Zm168 0v-8h8v-16h-8v-8h8v-16h-8v-8h8v-12a4 4 0 0 0-4-4h-20v88h24v-16h-8ZM48 220h32v-44a4 4 0 0 1 4-4h40a4 4 0 0 1 4 4v44h32V92H48v128Zm72 0H88v-40h32v40Z" clip-rule="evenodd"/><path fill="#F56A00" d="m104 0 4.232 10.175 10.985.88-8.369 7.17 2.557 10.72L104 23.2l-9.404 5.744 2.556-10.72-8.369-7.168 10.985-.88L104 0ZM192 50l4.232 10.175 10.985.88-8.369 7.17 2.557 10.72L192 73.2l-9.404 5.744 2.556-10.72-8.369-7.168 10.985-.88L192 50ZM156 12l4.232 10.175 10.985.88-8.369 7.17 2.557 10.72L156 35.2l-9.404 5.744 2.556-10.72-8.369-7.168 10.985-.88L156 12ZM16 50l4.232 10.175 10.985.88-8.37 7.17 2.558 10.72L16 73.2l-9.404 5.744 2.556-10.72-8.369-7.168 10.985-.88L16 50ZM52 12l4.232 10.175 10.985.88-8.37 7.17 2.558 10.72L52 35.2l-9.404 5.744 2.557-10.72-8.37-7.168 10.985-.88L52 12Z"/></svg>