<svg width="18" height="18" fill="none" xmlns="http://www.w3.org/2000/svg"><path fill-rule="evenodd" clip-rule="evenodd" d="M9 18A9 9 0 109 0a9 9 0 000 18zM7.138 3.682h4.133a3.05 3.05 0 013.047 3.047v4.133a3.05 3.05 0 01-3.047 3.047H7.138a3.05 3.05 0 01-3.047-3.047V6.73a3.05 3.05 0 013.047-3.047zm4.133 9.198a2.018 2.018 0 002.018-2.018V6.73a2.018 2.018 0 00-2.018-2.018H7.138A2.018 2.018 0 005.12 6.729v4.133c0 1.115.903 2.018 2.018 2.018h4.133zM9.205 6.15A2.648 2.648 0 006.56 8.797a2.648 2.648 0 002.645 2.645 2.648 2.648 0 002.645-2.645A2.648 2.648 0 009.205 6.15zm0 4.262a1.616 1.616 0 110-3.233 1.616 1.616 0 010 3.233zm3.284-4.242a.634.634 0 11-1.268 0 .634.634 0 011.268 0z" fill="#fff"/></svg>