<svg xmlns="http://www.w3.org/2000/svg" width="190" height="229" fill="none"><path fill="#F56A00" fill-rule="evenodd" d="M121.828 79.829 87 114.657 68.172 95.829l5.657-5.657L87 103.343l29.172-29.171 5.656 5.657Z" clip-rule="evenodd"/><path fill="#fff" fill-rule="evenodd" d="M95 141c26.51 0 48-21.491 48-48 0-26.51-21.49-48-48-48S47 66.49 47 93c0 26.509 21.49 48 48 48Zm0-8c22.091 0 40-17.909 40-40 0-22.092-17.909-40-40-40S55 70.908 55 93c0 22.091 17.909 40 40 40Z" clip-rule="evenodd"/><path fill="#fff" fill-rule="evenodd" d="M83.213 4.647a20 20 0 0 1 23.574 0l10.508 7.665a12 12 0 0 0 7.095 2.305l13.007-.024a20 20 0 0 1 19.071 13.855l3.996 12.379a12.002 12.002 0 0 0 4.385 6.035l10.538 7.626a20 20 0 0 1 7.284 22.419l-4.043 12.363a12.008 12.008 0 0 0 0 7.46l4.043 12.363a20 20 0 0 1-7.284 22.419l-10.538 7.626a12.005 12.005 0 0 0-2.757 2.785l25.9 44.862c4.46 7.725-.769 17.444-9.673 17.978l-18.799 1.128a4.005 4.005 0 0 0-3.099 1.789l-10.376 15.717c-4.915 7.444-15.946 7.113-20.407-.612l-22.66-39.248a20.021 20.021 0 0 1-15.956 0l-22.66 39.248c-4.46 7.725-15.491 8.056-20.406.612L33.578 207.68a4.003 4.003 0 0 0-3.099-1.789l-18.799-1.128c-8.904-.534-14.133-10.253-9.673-17.978l25.9-44.861a11.994 11.994 0 0 0-2.757-2.786l-10.538-7.626a20 20 0 0 1-7.284-22.419l4.043-12.363a12 12 0 0 0 0-7.46L7.329 76.907a20 20 0 0 1 7.284-22.42l10.538-7.625a12 12 0 0 0 4.385-6.035l3.996-12.379a20 20 0 0 1 19.07-13.855l13.008.024a12 12 0 0 0 7.095-2.305l10.508-7.665ZM45.511 161.115a11.984 11.984 0 0 1-4.366-6.021l-3.996-12.379a20.01 20.01 0 0 0-1.014-2.534l-.012-.024a19.992 19.992 0 0 0-6.282-7.5l-10.538-7.626a12 12 0 0 1-4.37-13.451l4.043-12.364a20 20 0 0 0 0-12.433L14.931 74.42a12 12 0 0 1 4.371-13.451l10.538-7.626a20 20 0 0 0 7.308-10.058l3.996-12.379a12 12 0 0 1 11.442-8.313l13.008.024a20 20 0 0 0 11.824-3.842l10.51-7.665a12 12 0 0 1 14.143 0l10.509 7.665a19.999 19.999 0 0 0 11.824 3.842l13.008-.024a12 12 0 0 1 11.442 8.313l3.996 12.379a20.001 20.001 0 0 0 7.308 10.058l10.538 7.626a12 12 0 0 1 4.371 13.451l-4.043 12.363a19.999 19.999 0 0 0 0 12.433l4.043 12.364a12 12 0 0 1-4.371 13.451l-10.538 7.626a20.006 20.006 0 0 0-7.246 9.869l-.062.189-3.996 12.379a12 12 0 0 1-11.442 8.313l-13.008-.025a20.005 20.005 0 0 0-11.824 3.842l-10.509 7.666a12 12 0 0 1-14.144 0l-.005-.003-.024-.018-10.48-7.645a19.992 19.992 0 0 0-11.825-3.842l-13.007.025a11.979 11.979 0 0 1-7.076-2.292Zm-13.919-9.572L8.936 190.785c-1.486 2.575.257 5.814 3.225 5.992l18.799 1.129a11.998 11.998 0 0 1 9.295 5.366l10.377 15.717c1.638 2.481 5.315 2.371 6.802-.204l22.846-39.572-7.575-5.525a12.004 12.004 0 0 0-7.095-2.306l-13.007.025a19.974 19.974 0 0 1-11.902-3.898 19.974 19.974 0 0 1-7.17-9.958l-1.939-6.008Zm78.128 27.67 22.846 39.572c1.487 2.575 5.164 2.685 6.803.204l10.376-15.717a11.999 11.999 0 0 1 9.295-5.366l18.799-1.129c2.969-.178 4.712-3.417 3.225-5.992l-22.656-39.242-1.94 6.008a19.998 19.998 0 0 1-19.071 13.856s.001 0 0 0l-13.007-.025a12.005 12.005 0 0 0-7.095 2.306l-7.575 5.525Z" clip-rule="evenodd"/></svg>