<svg xmlns="http://www.w3.org/2000/svg" width="224" height="208" fill="none"><path fill="#F56A00" d="M24 192a8 8 0 1 0 0-16 8 8 0 0 0 0 16Z"/><path fill="#fff" fill-rule="evenodd" d="M48 200v-2.794l34.917 3.937a84.689 84.689 0 0 0 41.977-5.946l72.457-30.094a15.728 15.728 0 0 0 9.182-18.505c-2.176-8.32-10.631-13.348-18.98-11.289L144 146.049V146c0-2.373-.59-4.607-1.631-6.565A13.997 13.997 0 0 0 130 132H72c-9.558 0-18.136 2.88-24 7.447V136a8 8 0 0 0-8-8H8a8 8 0 0 0-8 8v64a8 8 0 0 0 8 8h32a8 8 0 0 0 8-8Zm-8-64H8v64h32v-64Zm32 4c-11.962 0-20.327 5.229-22.979 10.161l-1.021 1.9v37.095l35.813 4.037a76.695 76.695 0 0 0 38.012-5.384l72.457-30.094a7.727 7.727 0 0 0-4.814-14.639l-48.848 12.047A13.97 13.97 0 0 1 130 160H88v-8h42a6 6 0 0 0 6-5.98v-.027a6 6 0 0 0-6-5.993H72ZM146.1 21.047A13.935 13.935 0 0 0 148 14c0-7.732-6.268-14-14-14s-14 6.268-14 14c0 2.468.639 4.788 1.76 6.801C85.558 25.951 57.161 55.334 53.52 92l-.044.465C49.147 93.793 46 97.823 46 102.587v6.826C46 115.26 50.74 120 56.587 120h156.826c5.847 0 10.587-4.74 10.587-10.587v-6.826C224 96.74 219.26 92 213.413 92h-.682c-3.587-36.122-31.199-65.175-66.631-70.953ZM140 14a6 6 0 1 1-12 0 6 6 0 0 1 12 0Zm-6.874 14c-37.06 0-67.581 28-71.56 64h143.12c-3.979-36-34.5-64-71.56-64ZM53.94 102.587c0-1.269.894-2.33 2.086-2.587h157.1v-.06h.287a2.647 2.647 0 0 1 2.647 2.647v6.826a2.647 2.647 0 0 1-2.647 2.647H56.587a2.647 2.647 0 0 1-2.647-2.647v-6.826Z" clip-rule="evenodd"/></svg>