<svg viewBox="0 0 12 15" xmlns="http://www.w3.org/2000/svg" fill-rule="evenodd" clip-rule="evenodd" stroke-linejoin="round" stroke-miterlimit="2"><path fill="none" d="M0 0h12v14.4H0z"/><path d="M10.2 7.8v-6H6v10.66c.743-.394 1.41-.823 1.997-1.285C9.466 10.025 10.2 8.9 10.2 7.8zM12 .6v7.2c0 .537-.105 1.07-.314 1.598-.21.528-.469.997-.778 1.407-.31.41-.678.808-1.106 1.195-.429.387-.824.71-1.186.966-.363.256-.741.498-1.135.726-.394.228-.673.383-.839.464-.166.082-.298.144-.398.188A.538.538 0 016 14.4a.538.538 0 01-.244-.056c-.1-.044-.232-.106-.398-.188a16.523 16.523 0 01-.84-.464c-.393-.228-.77-.47-1.134-.726A12.876 12.876 0 012.198 12a8.624 8.624 0 01-1.106-1.195c-.31-.41-.569-.879-.778-1.407A4.312 4.312 0 010 7.8V.6C0 .438.06.297.178.178.298.06.438 0 .6 0h10.8c.162 0 .303.06.422.178.119.12.178.26.178.422z" fill="#fff" fill-rule="nonzero"/></svg>