<svg width="18" height="18" fill="none" xmlns="http://www.w3.org/2000/svg"><path fill-rule="evenodd" clip-rule="evenodd" d="M9 18A9 9 0 109 0a9 9 0 000 18zM8.88 7.582l-.022-.35c-.064-.91.497-1.741 1.383-2.064.327-.114.88-.128 1.242-.028.142.043.412.186.603.315l.348.236.383-.122c.213-.064.496-.171.624-.243.12-.064.227-.1.227-.079 0 .122-.262.537-.482.767-.298.322-.213.35.39.136.362-.122.369-.122.298.014-.043.072-.263.322-.497.551-.397.394-.418.437-.418.767 0 .508-.242 1.568-.483 2.148-.447 1.089-1.404 2.213-2.362 2.78-1.348.794-3.143.995-4.654.53-.504-.158-1.37-.56-1.37-.631 0-.021.263-.05.583-.057a3.996 3.996 0 001.9-.53l.384-.23-.44-.15c-.624-.215-1.185-.709-1.327-1.175-.042-.15-.028-.157.37-.157l.41-.007-.347-.165c-.411-.208-.787-.559-.972-.917-.134-.257-.305-.91-.255-.96.014-.02.163.022.333.08.49.178.554.135.27-.165-.532-.545-.695-1.354-.44-2.12l.12-.344.469.465c.958.939 2.086 1.497 3.377 1.662l.354.043z" fill="#fff"/></svg>